<?xml version="1.0" encoding="UTF-8"?>
<svg id="Layer_1_Image" data-name="Layer 1 Image" xmlns="http://www.w3.org/2000/svg" viewBox="0 0 929.32 216.65">
  <defs>
    <style>
      .cls-1 {
        fill: #1e86fa;
      }

      .cls-2 {
        fill: #5f6269;
      }

      .cls-3 {
        fill: #4b654a;
      }

      .cls-4 {
        fill: #00812b;
      }

      .cls-5 {
        fill: #fdb801;
      }

      .cls-6 {
        fill: #fd2a25;
      }

      .cls-7 {
        fill: #a1b9a0;
      }

      .cls-8 {
        fill: #2086f8;
      }

      .cls-9 {
        fill: #2586f2;
      }

      .cls-10 {
        fill: #5e6269;
      }

      .cls-11 {
        fill: #5d6367;
      }

      .cls-12 {
        fill: #0069d8;
      }

      .cls-13 {
        fill: #5e626a;
      }

      .cls-14 {
        fill: #f0f1f1;
      }

      .cls-15 {
        fill: #00a946;
      }

      .cls-16 {
        fill: #5d6368;
      }
    </style>
  </defs>
  <path class="cls-1" d="M165.65.52l1.48.69v48.61l-1.48.89c-.19.31-.68.56-1.48.74-36.91,1.2-73.84,1.74-110.77,1.41v111.35s-1.47.91-1.47.91c-16.85-.25-33.59-.25-50.21,0l.67.37c-.55,11.37-.54,22.75.03,34.14l-1.43.92c-1.22-.77-.74-2.8-.75-4.05-.74-59.29.6-118.63-.01-177.93C.98,9.71,5.57,2.34,14.62.5c50.34.23,100.7-.24,151.03.02Z"/>
  <path class="cls-15" d="M51.93,165.12c37.79-2.05,75.94-2.35,113.72,0l1.48.69v46.88l-1.48,2.63-2.5.79c-37.07-.24-74.16.14-111.22-.05l-1.48-.67-.23-46.96c-.39-.49-.93-.98-1.55-1.15l-46.09-.67-.86-1.49c1.14.02,3.05-.71,4.77-.77,15.13-.57,30.52.64,45.45.77Z"/>
  <path class="cls-5" d="M216.6,52.19c.62,35.81,1.05,72.12.77,108.16.29,2.07-.75,3.2-1.5,4.77l-.69.94c-16.12.64-32.33.81-48.63.53l-.9-1.48-1.48-.51V53.1l1.48-.91c16.42-.64,34.37-.63,50.95,0Z"/>
  <path class="cls-4" d="M1.72,165.12l47.66.69,2.32,1.72.24,48.52c-10.31-.05-29.3,1.56-38.44-.33-7.28-1.5-11.99-8.15-12.51-15.17-.14-1.87-1.19-37.09.37-36.17.21.13.24.73.37.74Z"/>
  <path class="cls-12" d="M216.6,47.76l-.5,2.99c-16.73.5-33.55.48-50.45-.04V.52c11.16.06,25.93-1.2,36.55,0,4.71.53,10.02,4.25,12.34,8.34,3.76,6.62,1.88,29.95,2.06,38.91Z"/>
  <path class="cls-10" d="M339.49,47.62c19.82-2.03,38.34,3.66,51.16,19.19l-10.48,10.47c-27.88-30.69-75.67-12.71-78.5,28.45-3.28,47.7,50.14,69.31,81.64,34.58,1.34-.23,10.39,8.93,10.39,10.42,0,2.47-10.53,10.33-13.11,11.91-33.82,20.73-78.17,4.43-90.88-32.88-12.44-36.51,10.53-78.11,49.78-82.14Z"/>
  <path class="cls-2" d="M682.51,169.21h-14.99v-55.45c0-.76-2.17-6.12-2.79-7.2-5.44-9.43-23.26-9.71-30.73-2.33-2.09,2.07-7.46,11.92-7.46,14.52v50.45h-14.99v-81.92h13.99c.14,2.81-.2,5.7,0,8.51.11,1.49-.77,2.89,1.49,2.47,11.39-17.84,42.96-18.31,52.36,1.63.63,1.34,3.12,8.03,3.12,8.87v60.44Z"/>
  <path class="cls-6" d="M215.86,165.12c-.31.64-.21,1.68-1.05,2.23-16.57,15.74-31.95,33.1-49.16,47.96v-50.19h50.21Z"/>
  <rect class="cls-11" x="490.61" y="50.32" width="14.99" height="118.89"/>
  <path class="cls-13" d="M894.4,169.21h-14.99v-81.92h13.99v12.99c7.31-9.23,14.75-15.71,27.52-15.02,1.58.08,8.25.97,8.39,2.52.07.74-4.3,13.63-4.89,14.1-.73.59-12.08-2.15-18.38,1.55-4.36,2.56-11.64,12.28-11.64,17.33v48.46Z"/>
  <path class="cls-3" d="M216.6,51.45c-16.42.64-34.37.63-50.95,0-.24,1.96-.91,1.88-1.48,0,.2-.72.85-.69,1.48-.74,16.04-1.23,33.59.88,49.8.05l1.16-3c.03,1.23-.02,2.46,0,3.69Z"/>
  <path class="cls-7" d="M216.6,51.45c0,.25,0,.49,0,.74h-50.95c-.64-.21-.64-.46,0-.74h50.95Z"/>
  <path class="cls-14" d="M164.17,51.45h1.48v113.67c-37.88,0-75.84.34-113.72,0V51.45c37.4,0,74.84,0,112.24,0Z"/>
  <path class="cls-16" d="M762.47,50.32v46.46c0,.41,2.58,1.74-.49,1.49-17.13-22.42-50.05-15.1-61.37,9.6-17,37.07,20.15,82.4,54.59,57.57,2.41-1.74,6.27-7.18,6.77-7.2,2.27-.1,1.38,9.11,1.5,10.97h13.99V50.32h-14.99ZM737.09,158.11c-32.31-.44-33.3-53.9-5.87-58.6,40.99-7.01,41.02,59.08,5.87,58.6Z"/>
  <path class="cls-10" d="M518.72,134.62c3.66,35.15,46.06,49.5,70.88,25.14,10.89-10.69,4.52-11.8-6.43-16.44-14.43,24.38-47.33,15.78-49.57-12.07h63.97c4.86-63.57-85.5-60.62-78.84,3.37ZM535.59,118.26c3.83-25.6,42.77-26.14,45.98,0h-45.98Z"/>
  <path class="cls-10" d="M801.52,91.85c-1.11.81-7.91,7.44-8.03,7.99-.51,2.3,10.71,7.37,12.47,9.24,13.15-18.38,43.25-12.43,41.46,12.17-17.06-9.9-49.12-6.69-55.68,14.77-9.91,32.44,38.56,49.52,55.2,22.2l.5,10.99h14.99v-55.45c0-27.64-41.37-36.15-60.9-21.91ZM837.93,153.22c-11.04,8.24-32.7,6.19-31.5-10.47.81-11.29,16.02-15.28,25.5-14.49,2.38.2,14.5,3.8,15.33,5.14,2.92,4.65-5.27,16.79-9.33,19.83Z"/>
  <path class="cls-10" d="M466.15,96.25c-13.03-16.38-50.91-14.95-61.43,4.54l12.44,8.3c13.25-17.98,43.67-12.45,41.46,12.17-17.96-10-52.78-6.45-56.51,17.93-4.88,31.94,39.69,44.53,56.02,19.04l.5,10.99h14.99v-55.45c0-3.8-4.91-14.29-7.47-17.51ZM450.11,152.2c-11.22,9.36-33.73,7.9-32.48-9.44.85-11.76,16.69-15.45,26.4-14.4,2.14.23,13.73,3.92,14.43,5.04,2.93,4.64-4.55,15.62-8.36,18.8Z"/>
  <path class="cls-8" d="M101.41,108.28c13.25,5.4,13.51,22.89,2.58,31.01-12.67,9.42-34.36,3.9-37.24-12.48l9.54-3.76c2.04,15.44,27.35,13.03,24.21-2.42-1.51-7.45-12.11-8.71-18.29-7.91v-9.6c6.64.64,16.07-1.02,16.32-9.22.36-12.06-18.62-12.16-20.76-1.11-1.33-.92-9.14-3.2-9.53-3.76-.8-1.14,1.54-4.29,2.29-5.34,14.16-19.93,48.33-3.83,36.82,16.87-1.72,3.09-5.13,4.69-5.93,7.71Z"/>
  <path class="cls-9" d="M146.45,142.24h-10.34v-48.35c0-.14-.91-2.64-1.1-2.58-2.25.78-8.49,7.12-10.25,6.59-.83-.25-5.24-6.86-4.58-8.08.51-.96,16.42-12.26,17.62-12.71,2.93-1.1,5.84.07,8.65-1.31v66.43Z"/>
</svg>