<?xml version="1.0" encoding="UTF-8"?>
<svg id="Layer_1_Image" data-name="Layer 1 Image" xmlns="http://www.w3.org/2000/svg" viewBox="0 0 725.58 214.85">
  <defs>
    <style>
      .cls-1 {
        fill: #4285f4;
      }

      .cls-2 {
        fill: #1866d2;
      }

      .cls-3 {
        fill: #34a852;
      }

      .cls-4 {
        fill: #fabc04;
      }

      .cls-5 {
        fill: #ea4234;
      }

      .cls-6 {
        fill: #fefefe;
      }

      .cls-7 {
        fill: #5e6268;
      }

      .cls-8 {
        fill: #188038;
      }

      .cls-9 {
        fill: #4284f4;
      }
    </style>
  </defs>
  <path class="cls-9" d="M164.34,3.41l.33.14c.04,15.8-.16,32.03-.6,48.7-36.15.45-72.31.69-108.46.34.37,36.18.68,72.4-.24,108.59l-.19.54H6.59l-.33-.54c-.1-47.27.09-94.54-.01-141.81.59-8.68,6.71-15.21,15.43-15.96,47.55.09,95.11-.08,142.66.01Z"/>
  <path class="cls-4" d="M212.92,52.24c.07,36-.06,72.02.02,108.02l-.29.91-1.13.54h-47.12l-.33-.54c-.78-36.31-.76-72.63,0-108.93,0-.21.06-.54.19-.54,15.93-.18,32.39-.18,48.33,0l.33.54Z"/>
  <path class="cls-3" d="M164.07,161.18l.54.19v47.24l-.54,1.13-.91.29c-36.11-.09-72.22.05-108.32-.02l-.27-.23c.1-14.6.25-29.46.45-44.59l.36-4.01c36.23-.53,72.47-.53,108.7,0Z"/>
  <path class="cls-8" d="M55.37,161.18c-.02,16.06-.18,32.11-.09,48.17l-.45.66c-10.56-.02-23.11.84-33.41,0-8.6-.7-14.54-7.56-15.16-15.96-.76-10.29.02-22.38,0-32.86h49.12Z"/>
  <path class="cls-2" d="M212.92,52.24h-48.85c-.01-15.9-.06-31.82-.12-47.73l.39-1.1c11.3.02,22.61-.04,33.92.03,7.51.87,14.01,6.93,14.66,14.59.88,10.5-.02,23.42,0,34.21Z"/>
  <path class="cls-7" d="M302.14,89.12c-.2.15-.42.8-.92.56-8.58-10.97-24.62-13.53-37-7.76-25,11.66-24.07,52.13,1.85,62.21,13.43,5.22,28.41.99,37.47-10.04l7.76,7.23c.21.41-.99,1.73-1.35,2.15-13.17,15.1-37.87,16.77-54.33,6.28-38.85-24.78-18.91-87.11,29.06-80.84,7.78,1.02,19.1,6.22,23.78,12.71.17.24.56.61.42.94-2.3,2.04-4.31,4.68-6.74,6.55Z"/>
  <path class="cls-7" d="M515.39,154.74h-10.74v-36.62c0-4.78-2.83-10.14-7.37-11.95-11.35-4.51-20.94,3.83-21.75,15.05l-.13,33.52h-10.33s-.4-.37-.4-.4v-57.28h10.47v7.78c1.13-.12,1.5-1.54,2.15-2.27,11.95-13.38,36.04-8.29,37.83,10.73.6,13.78.11,27.64.27,41.45Z"/>
  <polygon class="cls-5" points="212.65 161.18 164.07 209.74 164.07 161.18 212.65 161.18"/>
  <rect class="cls-7" x="379.32" y="70.49" width="10.74" height="84.25"/>
  <path class="cls-7" d="M664.89,154.74h-10.6v-57.69h10.06v9.39c.71.12.74-1.06,1.13-1.69,4.9-8.04,14.86-11.57,23.72-7.98l.11.39-3.21,9.97c-4.08-.75-7.61-1.12-11.54.52-4.69,1.96-9.67,8.52-9.67,13.67v33.4Z"/>
  <path class="cls-6" d="M164.07,52.24c.02,36.31,0,72.63,0,108.93H55.37c.04-36.31-.03-72.63,0-108.93,36.23,0,72.47,0,108.7,0Z"/>
  <path class="cls-7" d="M571.49,70.49l.27,34.61c-3.47-4.66-7.72-7.82-13.41-9.26-29.46-7.43-44.26,33.83-23.9,53.67,9.53,9.29,26.22,9.66,35.3-.41.41-.45,1.42-2.14,1.74-2.29.28-.13.54.21.54.27v7.65h10.2v-84.25h-10.74ZM566.02,141.76c-5.45,5.72-14.76,6.41-21.36,2.35-14.98-9.2-10.93-37.93,7.88-39.03,18.99-1.11,25.02,24.55,13.47,36.68Z"/>
  <path class="cls-7" d="M453.32,113.09c-5.33-16.31-24.54-22.55-39.29-14.48-19.76,10.82-19.77,42.97-.44,54.19,13.97,8.11,33.85,2.91,40.61-12.02l-9.66-4.57c-4.59,9.97-16.35,13.47-25.75,7.62-5.39-3.35-8.42-9.69-8.61-15.94h44.82c.53-4.78-.19-10.22-1.69-14.81ZM411.26,118.78c2.62-18.07,30.67-18.58,32.48,0h-32.48Z"/>
  <path class="cls-7" d="M350.12,96.06c-11.37-2.76-25.07,0-31.48,10.5l9.24,5.76c4.02-5.23,9.39-8.12,16.14-7.48,5.87.55,12.34,5.53,13.02,11.67.14,1.31-.1,2.82,0,4.16-8.44-4.14-19.68-4.92-28.36-1.12-18.35,8.03-14.63,31.98,3.94,36.41,10.23,2.44,17.52-.83,23.67-8.81.23-.3.27-.55.76-.45v7.65s.37.4.4.4h9.39c.1,0,.42-.32.66-.29v-37.13c-.76-10.62-6.93-18.72-17.38-21.26ZM356.71,133.34c-.59,2.99-2.34,5.65-4.38,7.83-4.75,5.08-12.37,7.56-18.87,4.27-4.7-2.37-7.13-7.22-4.83-12.27,3.8-8.33,18.22-8.56,25.38-5.04,3.04,1.49,3.39,1.76,2.71,5.22Z"/>
  <path class="cls-7" d="M642.08,117.29c-.51-10.27-6.53-18.32-16.54-21.02-11.57-3.12-25.46-.42-32.3,10.04l9.24,6.01c5.19-7.96,16.78-10.29,24.29-4.14,1.65,1.35,4.83,5.4,4.83,7.52v4.7c-1.97-.67-3.83-1.52-5.85-2.07-11.52-3.15-29.18-.6-33.34,12.4-5.57,17.38,12.8,30.32,28.59,24.56,4.65-1.7,7.6-4.81,10.6-8.59v7.65s.37.4.4.4h9.66c.22,0,.47-.65.42-.93-.48-12.05.59-24.52,0-36.52ZM622.93,144.59c-6,3.44-16.17,3.35-19.55-3.62-3.85-7.94,4.37-14.13,11.53-14.86,3.63-.37,7.75-.15,11.2.98,1.08.36,5.31,2.12,5.49,3.09.98,5.16-4.43,11.97-8.68,14.4Z"/>
  <path class="cls-9" d="M91.47,101.61c9.56-1.13,12.07-13.84,2.7-16.92-6.3-2.07-11.93.86-14.13,6.97-.41.29-8.16-3.47-9.37-3.74,4.36-11.47,16.62-15.85,27.91-11.93,12.48,4.34,16.32,20.02,5.35,28.41-.79.6-2.51.94-1.59,1.9.34.35,2.91,1.57,3.73,2.17,3.35,2.44,6.01,6.87,6.43,11.01,1.77,17.42-18.37,26.06-32.41,18.72-5.13-2.68-9.94-7.91-10.74-13.76l9.37-3.51c1.55,7.4,8.49,11.8,15.89,9.58,8.86-2.66,10.42-13.94,1.88-18.09-.71-.34-3.35-1.42-3.95-1.42h-8.19v-8.99s.37-.4.4-.4c2.04,0,4.78.23,6.71,0Z"/>
  <polygon class="cls-1" points="145.82 76.12 145.82 139.18 135.62 139.18 135.62 90.08 125.29 97.27 120.08 89.67 138.44 76.12 145.82 76.12"/>
</svg>