<?xml version="1.0" encoding="UTF-8"?>
<svg id="Layer_1_Image" data-name="Layer 1 Image" xmlns="http://www.w3.org/2000/svg" viewBox="0 0 725.58 214.85">
  <defs>
    <style>
      .cls-1 {
        fill: #0dad7e;
      }

      .cls-2 {
        fill: #070707;
      }

      .cls-3 {
        fill: #0dad80;
      }

      .cls-4 {
        fill: #7acdbd;
      }

      .cls-5 {
        fill: #91e0cb;
      }

      .cls-6 {
        fill: #0dad7c;
      }

      .cls-7 {
        fill: #0dac7e;
      }

      .cls-8 {
        fill: #0dac80;
      }

      .cls-9 {
        fill: #90d9c4;
      }

      .cls-10 {
        fill: #86d8c7;
      }

      .cls-11 {
        fill: #84cdb7;
      }

      .cls-12 {
        fill: #080808;
      }

      .cls-13 {
        fill: #fcfefd;
      }

      .cls-14 {
        fill: #0eae80;
      }

      .cls-15 {
        fill: #95e8d6;
      }

      .cls-16 {
        fill: #080a09;
      }

      .cls-17 {
        fill: #0dad7d;
      }

      .cls-18 {
        fill: #76bca3;
      }

      .cls-19 {
        fill: #070908;
      }
    </style>
  </defs>
  <path class="cls-1" d="M192.88,8.22c10.46,6.91,18.59,20.5,19.36,33.08.47,7.68-.11,16.11-.03,23.9.39,34.3.6,68.87,0,103.03-.19,10.59-1.35,17.57-7.3,26.55-9.26,13.97-21.3,18.79-37.59,19.54-25.31,1.17-51.61-.04-77.1,0-15.76.03-31.9.91-47.77.33-14.15-.52-23.9-4.28-33.69-14.52-4.22-4.71-7.37-10.98-8.77-16.32V29.68c1.84-4.6,4.37-9.61,7.96-13.85C15.47,6.94,26.4,1.37,37.92,0h133.63c7.55,1.16,15.23,3.5,21.33,8.22Z"/>
  <path class="cls-19" d="M725.58,60.21v13.6l-21.64.28-.48,66.31c-.3.91-2.19.15-3.13.18-3.76.11-7.72.71-11.51.34-2.73-.26-1.37-2.48-1.33-4.39.45-20.06-.59-40.12-.33-60.17.02-1.26.98-2.3-1.03-2.57l-22.08.32c-.24-.02-.48-.07-.62-.28-.33-.47.22-9.76.19-11.37-.02-.72-.64-1.65.18-1.91l61.78-.35Z"/>
  <path class="cls-2" d="M543.28,98.44c.32-1.05,3.81-.15,4.67-.14,2.51.02,5.07,0,7.56,0,7.82,0,15.64-.67,23.46-.18.58.4.61,8.67.6,10,0,.71-.32,1.38-.33,2.09-.04,4.79.63,11.9.03,16.35-.3,2.18-6.74,6.87-8.74,8.19-20.15,13.28-52.62,8.52-62.67-15.1-7.91-18.59-3.57-43.02,14.17-54.24,17.32-10.96,48.22-7.84,56.68,13.03.55,1.36,1.46,2.59-.22,3.22-4.19,1.58-9.87,1.8-14.16,3.58-1.35-1.38-1.95-3.34-3.22-4.93-5.29-6.6-14.63-8.15-22.56-6.24-21.58,5.19-23,41.66-4.74,51.66,7.56,4.14,18.68,3.65,25.77-1.32,5.06-3.55,3.64-7.91,3.34-13.43-5.08.12-10.2-.17-15.28-.02-.71.02-4.37.85-4.37-.14v-12.39Z"/>
  <path class="cls-12" d="M325.88,81.34c-2.49.09-12.65,5.07-14.28,4.52-.42-.14-2-3.44-2.5-4.17-8.04-11.7-25.63-11.29-33.32.48-5.3,8.11-6.13,21.72-3.09,30.78,6.95,20.73,34.73,21.47,38.1-1.37l15.38,4.57c.47.73-1.58,5.48-2.03,6.51-7.5,17.27-24.39,22.53-42.08,18.08-37.44-9.4-38.21-69.49-.97-79.85,12.49-3.48,27.76-1.77,37.37,7.5,3.47,3.35,6.73,8.13,7.41,12.94Z"/>
  <path class="cls-19" d="M354.33,88.61l5.77-4.06c15.55-7.8,31.2-1.95,32.32,16.6.76,12.64-.58,25.98.02,38.7.07.31-.22,1.04-.47,1.04h-14.81c-.33,0-.43-.74-.47-1.04-.17-1.49-.04-3.88,0-5.47.25-9.49,1.3-22.36-.12-31.58-1.86-12.08-16.48-12.19-20.87-1.19-.33.84-1.37,3.98-1.37,4.68v34.15s-.42.45-.45.45h-14.51c-1.02,0-.77-5.41-.76-6.48.36-24.42.09-48.95.01-73.45.08-.57.48-1.02,1.06-1.07h13.93c.25-.05.73.32.73.45v28.26Z"/>
  <path class="cls-16" d="M486.14,82.57h10.43s.45.42.45.45v10.88s-.42.45-.45.45h-10.43c-.06,6.9.08,13.81.01,20.71,0,.64-.3,1.24-.31,1.8-.12,9.37.83,14.07,11.79,11.03.48,4.09.29,8.24.27,12.36-4.92.87-9.84,2.06-14.86,1.16-8.99-1.61-11.86-7.94-12.32-16.4-.54-9.94.44-20.34-.05-30.32-.22-.04-.6-.35-.71-.35h-7.41v-11.33s.42-.45.45-.45h7.56s.45-.42.45-.45v-12.54c5.13-.99,9.72-3.64,14.5-5.61.19-.26.62.29.62.32v18.28Z"/>
  <path class="cls-13" d="M171.42,57.79c6.57,10.14,7.88,22.97,3.41,34.13,22.91,23.14,11.77,65.09-20.65,70.44-3.79,9.08-10.91,18.11-19.95,22.67-16.52,8.32-33.16,6.61-47.74-4.71-1.22-.95-2.46-2.9-3.95-3.31-1.59-.43-3.9.4-5.59.47-24.11,1.11-45.62-20.07-44.32-44.3.11-2.01.42-5.1,1.27-6.89.25-.54.95-.65.83-1.49-.08-.57-3.37-4.65-4.02-5.68-7.78-12.43-9.21-28.71-3.25-42.19,4.98-11.26,15.22-21.42,27.88-22.9,8.89-27.41,42.98-37.22,65.87-19.93.87.66,4.29,4.17,4.78,4.31.74.21,5.46-1.06,6.89-1.16,15.73-1.07,30.26,7.7,38.54,20.55Z"/>
  <path class="cls-9" d="M154.79,162.35c-.36.41-.5.57-.6,0,1.62-.51,3.46-.63,5.09-1.11,5.93-1.74,13.05-7,17.14-11.58,14.85-16.62,13.47-41.91-1.93-57.64.48-2.09,1.43-4.04,1.92-6.13,2.29-9.82-.21-19.49-4.99-28.11.29.45.87.94,1.26,1.61,5.7,9.78,6.6,22.13,2.41,32.63,12.55,12.82,15.82,33.09,7.67,49.18-5.16,10.19-16.3,20.17-27.97,21.15Z"/>
  <path class="cls-11" d="M154.79,162.35c-4.52,8.86-10.64,17.77-19.68,22.5-.33.17-.74.09-.88.16,1.35-1.4,3.28-2.07,4.81-3.2,6.18-4.56,10.58-10.88,14.16-17.58.32-.61.24-1.65.99-1.89.14-.04.41.02.6,0Z"/>
  <path class="cls-12" d="M647.89,66.7c-10.53-9.56-33.8-5.9-47.33-6.18-1.92-.04-3.92-.79-5.88-.01v79.94s.42.45.45.45h14.81s.45-.42.45-.45v-29.16c13.44-.38,30.03,2.56,39.6-9.22,7.57-9.33,6.93-27.15-2.11-35.36ZM633.69,96.64c-4.46,2.48-10.92,1.7-15.88,1.63-2.47-.03-4.95.05-7.42.01v-24.48h18.59c1.37,0,5.01,1.69,6.17,2.6,5.69,4.42,4.97,16.66-1.47,20.24Z"/>
  <path class="cls-12" d="M457.96,134.46c-1.62-1.78-2.73-3.98-2.96-6.41-.92-9.8.58-21.18-.31-31.12-.63-7.02-4.77-11.82-11.33-14.06-8.72-2.99-28.63-2.22-34.75,5.77-1.02,1.33-4.25,7.71-3.36,9.05.42.63,11.93,2.22,13.58,3.03,2.14-6.67,8.65-8.58,15.08-7.2,5.12,1.1,6.2,5.47,5.62,10.16-9.93,3.17-21.18.94-30.16,7.17-3.98,2.76-6.51,7.49-6.69,12.35-.72,19.01,22.04,23.63,34.78,13.32.47-.38,2.03-2.21,2.27-2.27,1.28-.29,1.86,6.65,3.62,6.65h14.97l-.36-6.44ZM439.58,120.2c0,2.37-1.91,6.2-3.62,7.87-5.59,5.44-17.14,4.47-16.96-4.84.17-8.95,14.51-7.92,20.58-9.82v6.8Z"/>
  <path class="cls-6" d="M157.81,150.57c-1.26.69-2.06.72-2.42.09l-.31-27.75c-.23-8.12-1.43-16.49-9.07-21l-14.81-8.76c-5.68-3.5-11.11-7.43-17.23-10.12,5.24-2.63,12.02-7.47,18.08-5.69,4.38,1.29,14.51,8.74,19.01,11.52,10.9,6.75,19.4,9.03,23.76,22.49,5.3,16.34-1.98,31.89-17.02,39.22Z"/>
  <path class="cls-7" d="M90.93,36.41c7.87-.83,14.69.75,21.43,4.7.74.43,3.1,1.57,2.8,2.58-6.71,3.92-13.49,7.71-20.27,11.49-7.92,4.43-15.16,6.78-16,17.55-.95,12.08.32,26.19.63,38.38.02.76.2,1.76-.47,2.27-8.83-6.08-14.92-8.34-14.68-20.41.2-9.92-.36-21.13.3-30.82.94-13.58,13.02-24.36,26.25-25.74Z"/>
  <path class="cls-8" d="M130.3,102.82c.24-.27,4.02,2.27,4.51,2.59,2.56,1.7,6.94,4.66,8.43,7.29,1.38,2.43,1.46,5.6,1.58,8.39.42,9.53.62,22.32,0,31.76-1.54,23.32-30.41,33.66-49.09,20.94-2.93-1.99-2.27-1.97.5-3.63,8.32-4.97,18.51-9.09,26.42-14.39,8.59-5.76,8.02-12.51,7.93-21.66-.09-10.44.21-20.89-.29-31.29Z"/>
  <path class="cls-17" d="M95.84,132.14c.29.38-.29.67-.5.85-1.55,1.35-8.39,4.72-10.44,5.28-6.95,1.89-9.67-.8-15.15-4.08-8.84-5.3-17.48-10.98-26.31-16.31-14.19-13.49-11.36-39.52,5.09-50.11.91-.58,5.05-3.43,5.54-1.93.41,9.68-.39,19.63.03,29.28.66,14.92,4.47,15.51,15.83,22.26,7.81,4.65,15.91,10.05,23.99,14.1.45.23,1.86.57,1.92.65Z"/>
  <path class="cls-3" d="M166.58,82.27l-.8,2.95-.61-.02c-6.88-4.67-13.9-9.12-20.96-13.5-9.93-5.83-12.89-8.76-24.39-2.77-8,4.17-15.69,9.6-23.77,13.71l-8.07,5.98c.1-3.34-.21-6.78,0-10.12.1-1.66.42-4.71,1.09-6.17,1.35-2.99,9.18-6.56,12.21-8.19,3.83-2.02,7.56-4.15,11.19-6.35,12.37-6.58,20.82-13.81,35.37-7.4,12.64,5.56,20.64,17.94,18.74,31.88Z"/>
  <path class="cls-14" d="M103.7,153.89c-5.77,3.36-11.61,6.59-17.53,9.67-2.05.93-4.68,2.61-6.87,2.95-19.19,2.99-37.95-14.18-36.05-33.62.09-.97.19-2.65,1.37-1.99,1.51.85,3.14,1.98,4.64,2.92,6.62,4.14,13.62,9.5,20.37,13.18s11.43,3.84,18.36.4c9.69-4.82,21.22-12.05,30.62-17.74.72-.43,2.11-1.73,2.63-1.91.33-.12.6.22.6.31v9.07c0,1.18-.56,4.12-1.06,5.29-1.8,4.21-12.81,9.03-17.08,11.49Z"/>
  <path class="cls-1" d="M103.32,89.3c18.08-2.29,28.54,20.51,13.82,32.55-14.09,11.53-34.7-1.72-29.62-19.03,1.95-6.62,8.92-12.65,15.8-13.52Z"/>
  <path class="cls-5" d="M146.02,101.91c7.97,3.98,9.06,12.99,9.38,20.99l.29,27.97,2.11-.3c-.75.37-2.39,1.89-2.72.15-.37-12.79.69-26.09-1.53-38.67-1.51-4.42-4-7.56-7.84-10.14h.3Z"/>
  <path class="cls-15" d="M103.7,153.89c-5.81,3.35-11.31,6.83-17.53,9.67l17.53-9.67Z"/>
  <path class="cls-10" d="M144.21,71.69c7.14,4.19,14.25,8.5,21.04,13.27.79.29.79-2.33,1.33-2.69-.16,1.14-.3,2.21-.61,3.32l-.7-.05-21.06-13.85Z"/>
  <path class="cls-4" d="M146.02,101.91h-.3c-4.4-2.95-9.9-5.92-14.51-8.76l14.81,8.76Z"/>
  <path class="cls-18" d="M112.47,57.79l-3.96,2.84c-2.38,1.08-4.97,2.29-7.23,3.5l9.17-5.49c.55-.47,1.48-.57,2.02-.86Z"/>
</svg>