<?xml version="1.0" encoding="UTF-8"?>
<svg id="Layer_1_Image" data-name="Layer 1 Image" xmlns="http://www.w3.org/2000/svg" viewBox="0 0 629.39 232.29">
  <defs>
    <style>
      .cls-1 {
        fill: #dfdfdf;
      }

      .cls-2 {
        fill: #00a94c;
      }

      .cls-3 {
        fill: #1c93f8;
      }

      .cls-4 {
        fill: #2697f8;
      }

      .cls-5 {
        fill: #ec4f50;
      }

      .cls-6 {
        fill: #febc00;
      }

      .cls-7 {
        fill: #fe4e48;
      }

      .cls-8 {
        fill: #e93333;
      }

      .cls-9 {
        fill: #0086f7;
      }

      .cls-10 {
        fill: #2597f8;
      }

      .cls-11 {
        fill: #ec5050;
      }

      .cls-12 {
        fill: #eb4f50;
      }

      .cls-13 {
        fill: #fefefe;
      }

      .cls-14 {
        fill: #ec5051;
      }

      .cls-15 {
        fill: #fec626;
      }

      .cls-16 {
        fill: #2798f7;
      }

      .cls-17 {
        fill: #eee;
      }

      .cls-18 {
        fill: #0085f7;
      }
    </style>
  </defs>
  <path class="cls-18" d="M186.9,42.97c-4.6,2.18-7.84,5.28-11.01,9.22l-1.33-.25c-2.24-1.59-3.82-3.85-5.9-5.59-34.72-28.98-90.52-23.47-119.14,11.49-26.56,32.45-26.48,85.86,1.67,117.39l.48,1.27c-5.02,7.82,4.58,15.98,11.66,10.16l1.32.34c41.22,29.99,109.44,17.77,126.33-33.76.99-3.01,4.52-15.62,3.49-17.79-.13-.26-1.02-1.13-1.11-1.13h-76.83c-.71,0-1.33-1.75-1.43-2.49-.3-2.24-.2-22.24.31-23.29.45-.93,1.32-1.03,2.22-1.14,3.56-.46,8.82.06,12.64.03l1.91.68c4.11,4.35,9.84,6.58,15.81,5.99-1.72-3.53,1.87-2.89,4.05-1.18,2.01.48,6.19-3.27,7.61-4.72l2.03-.77c18.01-.03,39.99-1.5,57.5-.02,1.28.11,2.61,0,3.23,1.29.9,1.84,1.37,7.91,1.5,10.23,4.09,72.01-53.27,118.75-123.02,111.17-21.34-2.32-39.09-9.97-55.87-22.91-.75-.61-.84-1.44-.27-2.47-6.48-5.23-12.32-15.2.51-16.57,3.28,1.61,6.22,3.98,8.83,7.11,3.07.8-4.29-6.31-4.97-6.79-5.7-4-13.06.16-12.52,7.08,1.25,3.7.88,4.97-1.12,3.8C-21.08,145.46-8.19,49.34,61.11,12.81,100.3-7.85,157.84-3.8,190.83,26.99c2.07,1.93,6.28,4.87,4.51,7.89-1.17,2-6.5,6.1-8.44,8.09Z"/>
  <path class="cls-1" d="M398.32,124.23l.56.1.07,38.62c.63,2.33.64,4.8,0,7.39.66,4.37.68,8.75.08,13.14,1.02,1.82,1.03,3.98,0,6.48.2,13.41.14,26.62-.17,39.63-21.46.43-43.02-.04-64.49,0l-2.14-.86c-9.27-11.81-18.74-23.25-28.39-34.34l-45.8,34.14-3.3,1.06c-3.54.07-4.77.9-8.97,0l.49-1.12h6.23s0-103.55,0-103.55l1.12-.69,1.23-.53c23.38,15.67,47.22,32.29,71.52,49.88l61.07-42.99c3.45-2.4,7.16-4.39,10.87-6.37Z"/>
  <path class="cls-6" d="M503.75,87.25c31.58,4.9,46.91,25.05,48.25,56.3,1.17,27.09-.82,55.1-.15,82.28-.26,1-.69,1.98-1.84,2.09l-23.27-.56v-17.09c0-.14-.52-.82-1.12-.57-1.14.48-4.34,5.42-5.59,6.75-33.24,35.13-100.85,7.83-89.01-42.44,8.38-35.61,56.87-40.71,86.07-31.43,2.42.77,5.84,2.92,7.95,3.3,2.47.46,1.81-3.8,1.69-5.66-.96-15.11-13.89-27.71-28.59-29.99-1.93-.41-1.37-1.67-.53-3.1,5.38-5.56,5.14-12.97,3.61-19.87h2.53Z"/>
  <path class="cls-2" d="M605.67,27.42c4.33-.8,17.24-.4,21.73.43,1.38.25,1.7,1.28,1.93,2.55l.06,193.9c-.01,1.43-.29,3.34-1.99,3.62l-22.42-.02c-1.1-.14-1.82-.87-1.96-1.96l-.05-196.17c-.16-1.74,1.25-2.09,2.69-2.35Z"/>
  <path class="cls-7" d="M420.19,104.06v3.92c-.9,2.96-2.41,4.25-4.82,6.14-4.26,3.35-9.82,7.11-14.48,9.9l-1.45-.35c-.22.98-.45,1.45-1.12.56-23.83,16.99-47.71,33.96-71.97,50.34-22.45-15.42-44.72-31.11-66.93-46.88-1.8-1.28-4.22-2.35-5.79-3.47-6.83-3.65-13.6-8.5-19.62-13.59v104.81s-1.13.69-1.13.69c-.93-.58-.56-2.13-.57-3.07-.45-36.6.35-73.24.02-109.85.7-5.39,3.58-10.78,8.59-13.27,1.6-.8,2.76-1.65,4.5-.37l80.94,56.43,82.05-56.86c7.83,1.02,11.37,7.54,11.78,14.91Z"/>
  <path class="cls-18" d="M565.15,90.61h23.55c.06,0,.84.78.84.84v135.62c0,.06-.78.84-.84.84h-23.55c-.1,0-.99-.86-1.11-1.13V91.74l1.11-1.13Z"/>
  <path class="cls-8" d="M232.89,216.14v-108.16c5.83,6.06,13.5,10.22,20.36,15.12.5.36.34,1.1.39,1.13v105.36s-7.85,0-7.85,0c-6.62-1.42-12.44-6.34-12.9-13.45Z"/>
  <path class="cls-8" d="M420.19,107.98c.78,11.77.77,23.51-.05,35.21-1.09,4.05-1.6,7.61.05,11.59v10.93c-1.32.97-4.14-1.92-5.12-3.09-3.06-3.61-3.43-5.51-1.72-10-2.18-1.27-2.26,5.66-1.67,7.19.64,1.66,6,8.95,8.03,7.74.57,15.91.73,31.91.48,48.03-.25,4.61-3.24,9.25-7.11,11.67-4.93,3.09-8.19,2.22-13.64,2.34-.65-14.01-.62-28.12.11-42.31,2.46-2.51,2.33-3.31-.38-2.4-.07-1.04-.35-7.2-.08-7.46,1.64-1.58,6.56,5.21,5.41,7.35-.1.02-1.83,5.57-.55,4.4,5.01-4.6-1.07-11.57-4.5-14.77-.51-.91-1.1-6.98.56-6.45,1.32-2.53,3.14-4.77,5.48-6.72.52-2.21-3.75,1.89-4.12,2.93l-1.36-.14c-.87.84-.98-.01-1.05-1l-.07-38.68.56-.67c4.94-3.53,13.91-8.93,17.91-12.64,1.33-1.23,1.21-3.04,2.84-3.05Z"/>
  <path class="cls-17" d="M334.39,229.6c-26.51.04-53.13-.51-79.63,0l49.64-37,29.99,37Z"/>
  <path class="cls-9" d="M572.58,25.73c23.13-3.89,31,25.86,12.31,34.71-14.61,6.92-31.03-7.28-25.49-22.67,1.88-5.23,7.53-11.09,13.19-12.04Z"/>
  <path class="cls-6" d="M463.93,90.61l1.19.95c-.95,7.6.56,14.49,7.05,19.02,1.1.93,1.72,1.77.72,3-6.48,3.3-10.65,9.04-15.97,13.44-2.88-1.68-21.08-12.05-21.53-13.84-.32-1.29,1.6-3.61,2.44-4.65,6.76-8.43,16.03-14.36,26.08-17.93Z"/>
  <path class="cls-15" d="M503.75,87.25c-3.1-.65-.68,2.49-.56,4.2.33,4.51.12,8.57-1.94,12.63-1.02,2.01-4.1,4.18-3.11,6.14-8.23-1.28-17.74-.45-25.24,3.36-.64-2.15-2.94-3.05-4.47-4.78-2-2.27-4.06-5.99-4.46-9s.28-6.22-.05-9.2c2.77-.98,4.32-1.58,7.29-2.24l.82,1.06c-1.14,3.97,1.02,8.07,4.38,10.21-.98-4.62,2.13-10.69,6.01-12.95,8.07-.7,13.17-.7,21.31.56Z"/>
  <path class="cls-4" d="M161.67,107.42c-1.35,2.27-6.75,6.68-9.25,6.68-1.46,0-2.68-1.74-4.21-1.63,0,1.17,3.57,1.75,2.8,2.23-7.73,1.94-16.05-.86-20.75-7.28,10.46-.1,20.95.02,31.4,0Z"/>
  <path class="cls-11" d="M420.19,215.58v-47.08c-.84.27-1.26.74-2.22.31-1.59-.71-7.12-7.37-7.61-9.26-.54-2.1.12-9.7,3.1-8.18,2.27,1.16.24,3.08.02,4.56-.68,4.48,3.93,7.06,6.71,9.77v-10.93c0-.14-1.22-1.37-1.56-2.36-2.14-6.15,1.05-6.05,1.59-9.94,1.19-8.63.21-25.16-.03-34.49-.03-1.3.07-2.63,0-3.92v111.52Z"/>
  <path class="cls-10" d="M45.02,207.18c-3.36-2.59-6.43-4.89-9.53-7.85,2,.17.69-.43.52-1.36s-.52-1.72-.56-2.84c-.22-7.64,8-12.01,14.34-7.58.73.51,6.32,6.08,6.4,6.53.11.64-1.51,2.32-2,2.4-1.34.23-5.93-6.55-8.45-7.13-4.96-1.12-8.56,3.49-6.26,7.94.73,1.42,6.45,6.52,6.6,7.43.11.68-1.12,1.57-1.07,2.44Z"/>
  <path class="cls-14" d="M399.44,123.67l-.03,39.01c-.23.56.57,1.21.59,1.34,2.88-.36,1.14,2.58,0,3.92-.02.11-.5.57-.59,1.34-.86,7.47,7.34,7.32,7.36,14.63,0,1.4-1.11,7.36-3.42,6.2s-.25-3.57-.01-5.11c.46-3.08-1.54-5.31-3.9-6.97v6.16s2.8-1.68,2.8-1.68c1.32,3.96-2.47,4.81-2.83,7.53l.03,39.54c-.19,0-.37,0-.56,0l-.56-105.36c.43-.31.91-.41,1.12-.56Z"/>
  <path class="cls-3" d="M64.65,187c-8.4,7.85-20.34-2.54-13.46-11.77,3.37,3.78,9.32,8.76,13.46,11.77Z"/>
  <path class="cls-6" d="M482.44,86.69c-2.71,5.18-7.31,8.75-3.93,15.13-5.44-1.62-9.5-7.78-7.29-13.45,4.07-.91,7.05-1.32,11.22-1.68Z"/>
  <path class="cls-16" d="M186.9,42.97c-1,1.03-1.73,2.61-2.79,3.66-.83.82-6.34,5.96-6.75,6.15-2.08.96-1.98-.26-2.8-.84,3.56-3.48,6.72-9.08,12.34-8.97Z"/>
  <path class="cls-13" d="M489.61,159.71c9-.65,23.51,1.39,31.54,5.69,6.64,3.56,5.86,7.07,4.05,13.62-6.22,22.43-36.44,38.65-57.3,25.02-14.79-9.66-14.12-27.57.1-37.35,6.31-4.34,13.97-6.43,21.61-6.99Z"/>
  <path class="cls-5" d="M404.29,165.19c.6-.1,8.62,7.73,8.91,8.37.75,1.64-.65,2.28-1.7,3.33-1.72-2.56-7.82-6.65-9.01-8.95-.49-.96,1.14-2.64,1.8-2.75Z"/>
  <path class="cls-12" d="M400,167.95c.12-.82.58-1.57.54-2.5-.03-.68-.5-1.13-.54-1.42l4.29-5c.73-.13,2.53,1.66,2.4,2.4s-5.63,5.62-6.69,6.52Z"/>
  <path class="cls-6" d="M491.97,86.69c1.14,3.61.72,7.49-1.44,10.61-3.36,4.85-11.36,3.76-8.1,12.37-4.3-3.41.48-7.89,1.72-11.46,1.39-4.02,1.1-7.89-1.15-11.52h8.97Z"/>
</svg>