<svg width="25" height="25" viewBox="0 0 25 25" fill="none" xmlns="http://www.w3.org/2000/svg">
<g id="start icon">
<path id="Vector" d="M23.6514 15.4009C22.4484 14.0744 20.0714 14.0917 19.4309 14.1221V11.5211C20.0685 11.5486 22.4469 11.566 23.6514 10.2395C24.0519 9.80115 24.4842 9.02144 24.2774 7.80341C24.0895 6.69822 23.3882 5.86643 22.3544 5.52649C21.6676 5.29937 20.7871 5.49321 19.9991 6.04726C18.7903 6.89496 18.0573 8.36324 17.9647 10.0963H14.9805V6.98899C16.662 6.86892 18.0819 6.13984 18.9118 4.95942C19.4627 4.17248 19.6608 3.29295 19.4323 2.60583C19.0896 1.57007 18.2597 0.868475 17.1551 0.678972C15.9405 0.47211 15.1612 0.906086 14.7202 1.30534C13.5794 2.34255 13.4319 4.2506 13.4319 5.17062C13.4319 5.31673 13.4363 5.43535 13.4406 5.52504H10.8409C10.8684 4.8842 10.8829 2.5089 9.56277 1.30534C9.12178 0.906086 8.34245 0.47211 7.12792 0.678972C6.02327 0.868475 5.1919 1.57152 4.85067 2.60583C4.78994 2.79388 4.75958 2.99785 4.75958 3.20905C4.75958 3.77033 4.97068 4.38947 5.37119 4.95942C6.22714 6.18179 7.72218 6.91955 9.4818 6.99622V10.0963H6.69561C6.59439 8.37771 5.86278 6.92823 4.66415 6.08487C3.87615 5.53083 2.99562 5.33554 2.30883 5.5612C1.27358 5.90404 0.572332 6.73439 0.385815 7.83958C0.346776 8.05946 0.330872 8.26198 0.330872 8.45148C0.330872 9.32522 0.682219 9.91688 1.01188 10.2785C2.22497 11.6123 4.62945 11.5877 5.24684 11.5573V14.1583C4.62801 14.1308 2.22497 14.1047 1.01188 15.4399C0.683665 15.8016 0.330872 16.3904 0.330872 17.2655C0.330872 17.4536 0.346776 17.6576 0.384369 17.8731C0.572332 18.9783 1.27358 19.8101 2.30738 20.1515C2.99417 20.3786 3.87471 20.1848 4.66271 19.6307C5.86567 18.7859 6.60018 17.322 6.69416 15.5962H9.48036V18.2507C7.70049 18.3158 6.18666 19.055 5.32058 20.2904C4.92007 20.8603 4.70608 21.4823 4.70608 22.0407C4.70608 22.2519 4.73645 22.4559 4.80007 22.644C5.13985 23.6812 5.97122 24.3827 7.07587 24.5708C8.2933 24.7777 9.07262 24.3437 9.51072 23.9444C10.838 22.738 10.8192 20.354 10.7918 19.7204H13.3914C13.3871 19.8101 13.3828 19.9316 13.3828 20.082C13.3828 20.9992 13.5302 22.9072 14.671 23.9459C15.1091 24.3451 15.8914 24.7791 17.1059 24.5722C18.2105 24.3842 19.0419 23.6826 19.3817 22.6454C19.6087 21.9583 19.415 21.0773 18.8612 20.2918C18.0428 19.123 16.6403 18.3982 14.9805 18.268V15.5976H17.9662C18.0688 17.306 18.8019 18.7541 19.9976 19.5945C20.7856 20.1486 21.6662 20.3439 22.353 20.1153C23.3868 19.7754 24.0895 18.9436 24.276 17.8384C24.4842 16.6233 24.0504 15.8407 23.6499 15.4023L23.6514 15.4009ZM9.39071 5.54095C7.64988 5.41654 6.83586 4.51966 6.55969 4.12619C6.21702 3.64014 6.17509 3.22207 6.22859 3.06005C6.44692 2.39607 6.97032 2.17764 7.37083 2.10675C8.06485 1.98958 8.39884 2.20512 8.58536 2.37726C9.25914 2.98772 9.40228 4.38802 9.40228 5.19088C9.40228 5.32686 9.39794 5.44692 9.39071 5.54095ZM3.83133 18.4431C3.34552 18.7859 2.92766 18.8279 2.76428 18.7743C2.10207 18.5559 1.88229 18.0322 1.81434 17.6315C1.69722 16.9372 1.91121 16.603 2.08182 16.4164C2.79464 15.628 4.59475 15.5672 5.24684 15.6121C5.1225 17.3538 4.22605 18.1682 3.83278 18.4445L3.83133 18.4431ZM5.24539 10.1035C4.59331 10.1483 2.79464 10.0876 2.08038 9.30063C1.90977 9.11113 1.69578 8.77697 1.81289 8.0855C1.88085 7.68479 2.10207 7.15824 2.76283 6.9398C2.92766 6.88628 3.34407 6.93112 3.82988 7.27107C4.22461 7.54737 5.11816 8.36035 5.24395 10.0963V10.1035H5.24539ZM8.5362 22.8711C8.34679 23.0447 8.01569 23.2587 7.32167 23.1416C6.92116 23.0736 6.39776 22.8523 6.17654 22.1912C6.12304 22.0263 6.16786 21.6096 6.50764 21.1236C6.7838 20.7287 7.60072 19.8332 9.34155 19.7088C9.38348 20.3612 9.32276 22.1593 8.53765 22.8725L8.5362 22.8711ZM9.4818 14.1453H6.69561V11.5443H9.4818V14.1453ZM13.5302 18.2695H10.9306V15.5962H13.5302V18.2695ZM13.5302 14.1453H10.9306V11.5443H13.5302V14.1453ZM13.5302 10.0963H10.9306V6.97452H13.5302V10.0963ZM15.6962 2.37726C15.8856 2.20657 16.2196 1.98958 16.9107 2.10675C17.3112 2.17764 17.8375 2.39607 18.0558 3.06005C18.0674 3.09477 18.0746 3.14396 18.0746 3.20616C18.0746 3.41302 17.9908 3.75008 17.7247 4.12619C17.4529 4.51387 16.662 5.38617 14.9805 5.53372V5.52504H14.8937C14.8489 4.86106 14.9168 3.08609 15.6962 2.37726ZM17.6756 21.1221C18.0153 21.6082 18.0602 22.0263 18.0067 22.1897C17.7883 22.8523 17.2635 23.0721 16.8615 23.1401C16.1675 23.2573 15.8364 23.0432 15.647 22.8696C14.8662 22.1608 14.7997 20.38 14.8431 19.7175H14.9819C16.6316 19.8795 17.4081 20.7388 17.677 21.1207L17.6756 21.1221ZM17.9806 14.1438H14.9805V11.5428H17.9806V14.1438ZM20.8305 7.23201C21.3163 6.89206 21.7341 6.84722 21.8975 6.90074C22.5597 7.12207 22.7795 7.64429 22.8475 8.04644C22.8706 8.18531 22.8822 8.30972 22.8822 8.42255C22.8822 8.8681 22.7159 9.10968 22.58 9.26302C21.8672 10.05 20.067 10.1107 19.415 10.0673C19.5393 8.32563 20.4357 7.50976 20.829 7.23201H20.8305ZM22.8475 17.591C22.7795 17.9917 22.5583 18.5183 21.8975 18.7367C21.7327 18.7902 21.3163 18.7454 20.8305 18.4055C20.4415 18.1306 19.548 17.3205 19.4178 15.5933H19.4294V15.5701C20.0916 15.5282 21.8715 15.5933 22.58 16.3744C22.7159 16.5263 22.8822 16.7694 22.8822 17.2149C22.8822 17.3277 22.8706 17.4521 22.8475 17.591Z" fill="white"/>
</g>
</svg>
