<svg width="298" height="65" viewBox="0 0 298 65" fill="none" xmlns="http://www.w3.org/2000/svg">
<path d="M63.4658 40.0164C60.192 36.4237 53.723 36.4707 51.9799 36.553V29.5087C53.7152 29.5832 60.188 29.6302 63.4658 26.0375C64.5558 24.8504 65.7323 22.7387 65.1696 19.4399C64.6581 16.4467 62.7497 14.1939 59.9362 13.2732C58.0671 12.6581 55.6708 13.1831 53.5263 14.6836C50.2367 16.9795 48.2417 20.9561 47.9899 25.6497H39.8683V17.2341C44.4446 16.909 48.3086 14.9344 50.5672 11.7374C52.0664 9.6061 52.6055 7.22406 51.9838 5.36308C51.0512 2.55791 48.7926 0.657757 45.7864 0.14452C42.4811 -0.415731 40.3601 0.759621 39.16 1.84095C36.0554 4.65004 35.654 9.81767 35.654 12.3094C35.654 12.7051 35.6658 13.0264 35.6776 13.2693H28.6027C28.6775 11.5337 28.7168 5.10059 25.1243 1.84095C23.9241 0.759621 21.8032 -0.415731 18.4979 0.14452C15.4917 0.657757 13.2291 2.56183 12.3005 5.36308C12.1352 5.8724 12.0526 6.42482 12.0526 6.99682C12.0526 8.51694 12.6271 10.1938 13.717 11.7374C16.0465 15.048 20.1151 17.0461 24.9039 17.2537V25.6497H17.3214C17.0459 20.9953 15.0549 17.0696 11.7929 14.7855C9.64834 13.285 7.252 12.756 5.38293 13.3672C2.56555 14.2958 0.657126 16.5446 0.149526 19.5378C0.0432838 20.1333 0 20.6818 0 21.1951C0 23.5615 0.956178 25.1638 1.85333 26.1433C5.1547 29.7556 11.6984 29.689 13.3786 29.6067V36.651C11.6945 36.5765 5.1547 36.506 1.85333 40.1222C0.960113 41.1016 0 42.6962 0 45.0665C0 45.5758 0.0432838 46.1282 0.145591 46.712C0.657126 49.7052 2.56555 51.958 5.37899 52.8826C7.24806 53.4977 9.64441 52.9727 11.7889 51.4721C15.0628 49.1841 17.0617 45.2193 17.3174 40.5453H24.9V47.7345C20.0561 47.9108 15.9363 49.9128 13.5793 53.2587C12.4893 54.8023 11.907 56.487 11.907 57.9993C11.907 58.5713 11.9896 59.1237 12.1627 59.633C13.0874 62.4421 15.35 64.3422 18.3563 64.8516C21.6694 65.4118 23.7903 64.2365 24.9826 63.1551C28.5948 59.8877 28.5437 53.4311 28.4689 51.715H35.5438C35.532 51.958 35.5202 52.2871 35.5202 52.6945C35.5202 55.1784 35.9216 60.3461 39.0262 63.1591C40.2185 64.2404 42.3473 65.4157 45.6526 64.8555C48.6588 64.3462 50.9214 62.446 51.8461 59.6369C52.4639 57.7759 51.9366 55.39 50.4295 53.2626C48.2024 50.097 44.3855 48.1341 39.8683 47.7815V40.5492H47.9938C48.2732 45.1762 50.2682 49.0979 53.5223 51.3742C55.6669 52.8747 58.0632 53.4036 59.9323 52.7846C62.7457 51.8639 64.6581 49.6112 65.1657 46.6179C65.7323 43.327 64.5518 41.2074 63.4619 40.0203L63.4658 40.0164ZM24.656 13.3124C19.9184 12.9754 17.7031 10.5464 16.9515 9.48073C16.0189 8.16434 15.9048 7.03208 16.0504 6.59328C16.6446 4.795 18.069 4.2034 19.159 4.01143C21.0477 3.69408 21.9567 4.27784 22.4643 4.74406C24.2979 6.39739 24.6875 10.1899 24.6875 12.3643C24.6875 12.7325 24.6757 13.0577 24.656 13.3124ZM9.52636 48.2556C8.20424 49.1841 7.06706 49.2977 6.62242 49.1528C4.82024 48.5612 4.22214 47.1429 4.0372 46.0577C3.71847 44.1771 4.30083 43.2721 4.76515 42.7667C6.70505 40.6315 11.604 40.4669 13.3786 40.5884C13.0402 45.3055 10.6006 47.5112 9.5303 48.2595L9.52636 48.2556ZM13.3747 25.6692C11.6 25.7907 6.70505 25.6262 4.76121 23.4948C4.2969 22.9816 3.71453 22.0766 4.03326 20.2039C4.2182 19.1186 4.82024 17.6925 6.61848 17.1009C7.06706 16.956 8.20031 17.0774 9.52243 17.9981C10.5967 18.7464 13.0284 20.9483 13.3707 25.6497V25.6692H13.3747ZM22.3305 60.2481C21.815 60.7182 20.9139 61.2981 19.0252 60.9807C17.9352 60.7966 16.5108 60.1972 15.9088 58.4067C15.7632 57.9601 15.8851 56.8317 16.8098 55.5154C17.5614 54.4458 19.7846 52.0206 24.5222 51.6837C24.6363 53.4506 24.4711 58.3205 22.3344 60.252L22.3305 60.2481ZM24.9039 36.6157H17.3214V29.5714H24.9039V36.6157ZM35.9216 47.7855H28.8467V40.5453H35.9216V47.7855ZM35.9216 36.6157H28.8467V29.5714H35.9216V36.6157ZM35.9216 25.6497H28.8467V17.195H35.9216V25.6497ZM41.8161 4.74406C42.3315 4.28176 43.2405 3.69408 45.1214 4.01143C46.2113 4.2034 47.6436 4.795 48.2378 6.59328C48.2693 6.68731 48.2889 6.82052 48.2889 6.98899C48.2889 7.54924 48.0607 8.4621 47.3367 9.48073C46.5969 10.5307 44.4446 12.8932 39.8683 13.2928V13.2693H39.6322C39.5102 11.471 39.6951 6.66381 41.8161 4.74406ZM47.2029 55.5114C48.1276 56.8278 48.2496 57.9601 48.104 58.4028C47.5098 60.1972 46.0815 60.7927 44.9876 60.9768C43.0988 61.2942 42.1977 60.7143 41.6823 60.2442C39.5574 58.3244 39.3764 53.5016 39.4945 51.7072H39.8722C44.3619 52.146 46.475 54.4732 47.2069 55.5075L47.2029 55.5114ZM48.0332 36.6118H39.8683V29.5675H48.0332V36.6118ZM55.7888 17.8923C57.111 16.9716 58.2481 16.8502 58.6928 16.9952C60.495 17.5946 61.0931 19.0089 61.278 20.0981C61.341 20.4742 61.3724 20.8111 61.3724 21.1167C61.3724 22.3234 60.9199 22.9777 60.5501 23.393C58.6102 25.5243 53.7112 25.6888 51.9366 25.5713C52.275 20.8542 54.7146 18.6446 55.7849 17.8923H55.7888ZM61.278 45.948C61.0931 47.0332 60.491 48.4593 58.6928 49.0509C58.2442 49.1959 57.111 49.0744 55.7888 48.1537C54.7304 47.4093 52.2986 45.2154 51.9445 40.5375H51.9759V40.4748C53.7781 40.3611 58.622 40.5375 60.5501 42.6531C60.9199 43.0645 61.3724 43.7227 61.3724 44.9294C61.3724 45.2349 61.341 45.5719 61.278 45.948Z" fill="#2EAE7B"/>
<path d="M105.029 40.8921H104.951C103.222 47.8131 98.0255 51.1231 91.5686 51.1231C84.1638 51.1231 79.6027 47.7351 79.6027 40.8921C79.6027 34.8293 83.7735 30.115 92.3604 30.115H105.04V27.6743C105.04 21.2214 102.676 17.6773 96.0628 17.6773C90.2416 17.6773 87.0856 20.4301 85.9816 27.1951L80.7848 26.3258C82.045 17.5102 87.2417 12.9519 96.2189 12.9519C106.066 12.9519 110.393 18.1454 110.393 27.5071V50.3207H105.04V40.881L105.029 40.8921ZM105.029 36.88V34.5172H92.9068C87.7882 34.5172 84.9556 36.5568 84.9556 40.4129C84.9556 43.3997 87.0075 46.4757 92.7507 46.4757C100.39 46.4757 105.029 42.3855 105.029 36.88Z" fill="black"/>
<path d="M122.749 50.3317H117.318V2.09668H122.749V50.3317Z" fill="black"/>
<path d="M135.418 50.3317H129.987V2.09668H135.418V50.3317Z" fill="black"/>
<path d="M173.691 27.9083C175.664 33.6479 177.471 39.7887 179.2 45.8516H179.356C181.006 39.6327 182.824 34.0491 184.787 27.6743L188.957 13.7432H194.466L182.266 50.3318H175.966L170.691 34.1271C168.962 28.9336 167.624 23.7401 166.208 18.5466H165.974C164.557 23.7401 163.141 29.0116 161.491 34.1271L156.372 50.3318H150.071L137.715 13.7432H143.302L147.863 27.6743C149.993 33.9711 151.878 39.7107 153.45 45.8516H153.606C155.335 39.7887 157.074 33.6591 158.959 27.9083L163.364 13.7432H169.107L173.668 27.9083H173.691Z" fill="black"/>
<path d="M193.452 62.4462L194.243 57.2527C195.894 57.5647 197.31 57.7988 198.894 57.7988C203.221 57.7988 205.975 56.6954 208.975 49.8525L192.838 13.7319H198.905L204.258 26.6377C206.232 31.4411 209.455 38.8302 211.897 44.581C214.183 38.7633 217.094 31.5972 218.978 26.7937L224.019 13.7319H229.84L213.938 50.7886C210.235 59.3702 205.83 62.9031 198.816 62.9031C196.53 62.9031 194.879 62.6691 193.463 62.435L193.452 62.4462Z" fill="black"/>
<path d="M229.427 38.2172L234.546 37.1919C235.962 42.5414 238.639 46.7096 246.434 46.7096C252.177 46.7096 255.021 44.2689 255.099 40.4908C255.099 37.0247 252.657 35.2973 244.315 33.9599C234.948 32.3104 231.401 28.9224 231.401 23.2608C231.401 17.198 235.884 12.8738 244.627 12.8738C253.37 12.8738 257.619 17.12 259.426 24.4422L254.229 25.7015C252.735 19.6387 249.98 17.2872 244.705 17.2872C239.431 17.2872 236.754 19.4938 236.754 22.9487C236.754 26.4037 239.04 28.4543 246.679 29.6357C256.526 31.2071 260.463 34.6732 260.463 40.4128C260.463 46.9437 255.891 51.2679 246.367 51.2679C235.349 51.2679 231.167 46.0744 229.439 38.2061L229.427 38.2172Z" fill="black"/>
<path d="M262.805 32.1544C262.805 20.0399 270.444 12.8738 281.228 12.8738C292.011 12.8738 298 19.7167 298 29.8697C298 30.739 298 32.2324 297.844 33.7258H268.314C268.86 41.7502 273.589 46.3196 281.384 46.3196C288.632 46.3196 291.543 42.5414 292.881 37.8272L297.766 39.2426C295.881 46.6428 290.439 51.201 281.384 51.201C269.964 51.201 262.805 44.046 262.805 32.1544ZM268.392 29.2456H292.881C292.491 21.8454 288.632 17.6772 281.072 17.6772C273.99 17.6772 269.262 21.6114 268.392 29.2456Z" fill="black"/>
</svg>
