<svg width="57" height="59" viewBox="0 0 57 59" fill="none" xmlns="http://www.w3.org/2000/svg">
<path d="M26.6513 4.03866e-05C15.3689 -0.036834 -6.33642 25.1877 1.77251 31.8694L3.76383 33.514C3.22637 34.9194 3.03638 36.4287 3.20929 37.9192C3.42102 39.9842 4.51498 41.9607 6.28448 43.4897C7.96324 44.9401 10.1713 45.8595 12.3139 45.8595C15.8579 53.8244 23.9593 58.7115 33.4521 58.9868C43.6355 59.2818 52.1881 54.6209 55.7699 46.2479C56.0043 45.6579 57 43.0128 57 40.675C57 38.3248 55.6388 37.3514 54.7692 37.3514C54.744 37.2604 54.5726 36.6483 54.3357 35.9108C54.1012 35.1733 53.8567 34.6571 53.8567 34.6571C54.802 33.273 54.8196 32.039 54.6936 31.3384C54.56 30.4706 54.1895 29.7331 53.4434 28.9686C52.6972 28.204 51.1697 27.4198 49.0247 26.8348L47.9004 26.5299C47.8954 26.4832 47.8399 23.9414 47.7921 22.8499C47.7568 22.0632 47.6862 20.8292 47.2955 19.6172C46.8266 17.9751 46.015 16.537 44.9992 15.6176C47.8021 12.7856 49.5515 9.66359 49.5464 6.98651C49.5389 1.83639 43.0532 0.277828 35.0628 3.50557L33.3689 4.20618C32.335 3.21584 31.2999 2.22679 30.2634 1.23902C29.2653 0.390909 28.0377 0.00495697 26.6513 4.03866e-05ZM26.8354 2.14613C27.2538 2.14613 27.647 2.19284 28.0075 2.28871C28.7561 2.49521 31.2339 5.29766 31.2339 5.29766C31.2339 5.29766 26.6312 7.78791 22.3612 11.2615C16.6141 15.5807 12.266 21.8592 9.66467 28.6711C7.62043 29.0595 5.81816 30.1903 4.71664 31.7514C4.05875 31.2155 2.83119 30.1781 2.61441 29.7749C0.854996 26.5152 4.53263 20.1826 7.10369 16.6058C12.9566 8.45657 21.8697 2.13138 26.8354 2.14613ZM35.1182 10.1921C35.219 10.1872 35.2695 10.315 35.1888 10.374C34.8283 10.6445 34.4351 11.0132 34.1478 11.3918C34.1367 11.4062 34.1298 11.4234 34.128 11.4413C34.1263 11.4593 34.1296 11.4774 34.1377 11.4937C34.1457 11.5099 34.1582 11.5237 34.1738 11.5335C34.1894 11.5432 34.2074 11.5487 34.2259 11.5491C35.887 11.5589 38.2262 12.1268 39.7512 12.9602C39.8545 13.0167 39.7814 13.2134 39.6655 13.1863C37.3591 12.6701 33.5806 12.2792 29.6585 13.2109C26.1548 14.0467 23.4829 15.3324 21.5319 16.7164C21.4311 16.7853 21.3151 16.6599 21.3933 16.5689C23.6518 14.0246 26.4321 11.8121 28.9225 10.5707C29.0082 10.5265 29.0989 10.6174 29.0535 10.6985C28.8544 11.0501 28.4738 11.7974 28.3528 12.3653C28.3351 12.4513 28.4334 12.5201 28.5091 12.4685C30.0593 11.436 32.7538 10.3347 35.1182 10.1921ZM42.7382 18.071L42.8793 18.0734C43.2887 18.0892 43.6861 18.2132 44.0287 18.4323C45.3748 19.305 45.5663 21.4216 45.6369 22.9679C45.6747 23.8529 45.7856 25.9891 45.8234 26.6012C45.9091 28.0049 46.2872 28.2016 47.051 28.4474C47.4795 28.5875 47.8828 28.6883 48.4701 28.8506C50.2497 29.3373 51.3058 29.8339 51.9738 30.4681C52.3696 30.8664 52.5536 31.2867 52.6115 31.6899C52.8208 33.1845 51.4218 35.0332 47.7164 36.7073C43.6658 38.5412 38.7505 39.0058 35.3552 38.637L34.1679 38.5068C31.4507 38.1503 29.9005 41.5722 31.5313 43.9175C32.5824 45.4293 35.4434 46.4126 38.3068 46.4126C44.8706 46.4126 49.9144 43.6815 51.7923 41.319C51.8465 41.252 51.897 41.1823 51.9436 41.1101C52.0343 40.9749 51.9587 40.9011 51.8427 40.9773C50.3102 42 43.4994 46.0635 36.2147 44.8393C36.2147 44.8393 35.33 44.6992 34.5208 44.3919C33.8781 44.1461 32.5346 43.5463 32.3707 42.2016C38.2514 43.9715 41.9517 42.2974 41.9517 42.2974C41.986 42.2823 42.0146 42.2571 42.0336 42.2254C42.0525 42.1937 42.0609 42.157 42.0576 42.1204C42.0554 42.0988 42.0488 42.0777 42.0382 42.0586C42.0276 42.0394 42.0132 42.0224 41.9959 42.0087C41.9785 41.995 41.9586 41.9848 41.9371 41.9786C41.9157 41.9725 41.8932 41.9706 41.871 41.9729C41.871 41.9729 37.0541 42.6686 32.4993 41.0437C32.9958 39.4704 34.3141 40.0407 36.3054 40.1956C39.4037 40.3747 42.5108 40.0474 45.4983 39.227C47.5602 38.6518 50.2673 37.5136 52.3721 35.8936C53.0804 37.4128 53.3299 39.0869 53.3299 39.0869C53.3299 39.0869 53.882 38.9886 54.3382 39.2664C54.7743 39.5269 55.0919 40.0678 54.8751 41.4665C54.4315 44.0797 53.2921 46.2012 51.3789 48.1531C50.1827 49.4144 48.7593 50.4509 47.1795 51.2112C46.3225 51.6537 45.405 52.0323 44.4396 52.342C37.223 54.6405 29.8349 52.1134 27.4529 46.688C27.26 46.273 27.1007 45.844 26.9765 45.4047C25.9607 41.8279 26.8253 37.5382 29.5173 34.8365C29.6812 34.6644 29.8501 34.4604 29.8501 34.2072C29.8501 33.9933 29.7114 33.7672 29.5929 33.6098C28.6502 32.275 25.386 30.006 26.0414 25.6105C26.5127 22.4541 29.3434 20.2293 31.9825 20.3621C32.2069 20.3719 32.4287 20.3867 32.653 20.399C33.7949 20.4653 34.7956 20.6079 35.7358 20.6448C37.3112 20.7136 38.7278 20.4899 40.4065 19.1256C40.9737 18.6659 41.4274 18.2652 42.1962 18.1398C42.2668 18.1275 42.4281 18.071 42.7382 18.071ZM42.7936 23.43C42.743 23.4306 42.6924 23.4347 42.6424 23.4423C41.7979 23.5751 41.7677 24.5928 42.0677 25.999C42.2391 26.7856 42.539 27.4616 42.8743 27.8795C43.3154 27.8304 43.7388 27.8255 44.1296 27.8795C44.3539 27.3756 44.3917 26.5103 44.19 25.5638C43.9077 24.2486 43.5322 23.4202 42.7936 23.43ZM33.568 27.2306C32.6489 27.2268 31.7523 27.5074 31.007 28.032C30.6037 28.3196 30.2231 28.7203 30.276 28.9612C30.2962 29.0399 30.3542 29.0989 30.4979 29.1161C30.8281 29.1529 31.9901 28.5826 33.326 28.5015C34.2688 28.445 35.0502 28.7326 35.6526 28.9932C36.255 29.2488 36.6256 29.4184 36.7692 29.2709C36.8625 29.1775 36.8348 29.0005 36.6911 28.7695C36.3937 28.2975 35.7837 27.8181 35.1333 27.5477C34.6385 27.3412 34.1063 27.2334 33.568 27.2306ZM43.8573 29.2218C43.4263 29.2144 43.0684 29.679 43.0583 30.2543C43.0482 30.8344 43.3885 31.3113 43.822 31.3162C44.2556 31.3236 44.6135 30.8615 44.6236 30.2838C44.6337 29.7036 44.2909 29.2292 43.8573 29.2218ZM34.8334 29.6446C34.7074 29.6446 34.5763 29.6495 34.4427 29.6643C33.6588 29.7872 33.2252 30.0379 32.9479 30.2715C32.711 30.473 32.5648 30.6968 32.5648 30.8541C32.5645 30.8785 32.5691 30.9027 32.5785 30.9254C32.5878 30.948 32.6017 30.9687 32.6193 30.986C32.6369 31.0034 32.6578 31.0172 32.6809 31.0266C32.704 31.0361 32.7288 31.0409 32.7538 31.0409C32.9303 31.0409 33.3286 30.886 33.3286 30.886C34.133 30.5903 35.0021 30.5022 35.8517 30.6304C36.2475 30.6746 36.4315 30.6968 36.5197 30.5665C36.5449 30.5271 36.5752 30.446 36.4945 30.3206C36.3357 30.0674 35.7131 29.6594 34.8334 29.6446ZM40.5301 30.6279C40.2099 30.6279 39.9377 30.7533 39.8167 30.9917C39.6277 31.3703 39.9049 31.8841 40.4368 32.1373C40.9661 32.393 41.5534 32.2922 41.7475 31.9161C41.9366 31.535 41.6593 31.0212 41.1275 30.768C40.942 30.6769 40.7377 30.6305 40.5301 30.6279ZM11.2023 30.6869C11.3233 30.6869 11.4493 30.6869 11.5779 30.6943C13.4179 30.7926 16.1301 32.1693 16.7502 36.078C17.2972 39.5442 16.4276 43.0669 13.0978 43.6225C12.7878 43.6716 12.4727 43.6938 12.1551 43.6864C9.07988 43.6053 5.75514 40.9036 5.42494 37.7004C5.05944 34.1605 6.91464 31.4367 10.1991 30.7902C10.494 30.7312 10.8343 30.6918 11.2023 30.6869ZM11.0258 32.9658C10.6258 32.9623 10.2294 33.0401 9.86182 33.1941C9.49426 33.3482 9.16359 33.5751 8.89084 33.8606C7.93299 34.8881 7.78427 36.2894 7.96828 36.7859C8.03633 36.9654 8.14472 37.017 8.22034 37.0269C8.38166 37.0465 8.62365 36.931 8.77489 36.5352C8.79016 36.4929 8.80445 36.4503 8.81774 36.4074C8.90941 36.089 9.0424 35.7833 9.21348 35.4978C9.33842 35.3113 9.49986 35.1507 9.68854 35.0252C9.87721 34.8996 10.0894 34.8116 10.313 34.7662C10.5366 34.7207 10.7672 34.7188 10.9916 34.7604C11.216 34.802 11.4298 34.8863 11.6207 35.0086C12.2912 35.4363 12.5508 36.2377 12.2635 36.9998C12.1173 37.3956 11.8753 38.1528 11.9282 38.7722C12.0366 40.0284 12.8281 40.5348 13.5414 40.5865C14.2321 40.6111 14.7161 40.2349 14.8396 39.9571C14.9127 39.7924 14.8522 39.6941 14.8118 39.6499C14.7035 39.5196 14.527 39.5589 14.3581 39.5982C14.2266 39.6329 14.0911 39.651 13.9548 39.6523C13.8101 39.6562 13.6666 39.6251 13.5372 39.5616C13.4079 39.498 13.2967 39.4042 13.2138 39.2885C13.0171 38.9935 13.0297 38.551 13.2465 38.0495C13.2742 37.9807 13.3095 37.9069 13.3473 37.8233C13.6952 37.0662 14.2749 35.7953 13.6246 34.5858C13.1331 33.6762 12.3315 33.1059 11.3712 32.9879C11.2558 32.9728 11.1397 32.9646 11.0233 32.9633L11.0258 32.9658Z" fill="black"/>
</svg>
