<?xml version="1.0" encoding="UTF-8"?>
<svg id="Layer_1_Image" data-name="Layer 1 Image" xmlns="http://www.w3.org/2000/svg" viewBox="0 0 1274.59 217.22">
  <defs>
    <style>
      .cls-1 {
        fill: #409928;
      }

      .cls-2 {
        fill: #feb900;
      }

      .cls-3 {
        fill: #00822d;
      }

      .cls-4 {
        fill: #e94335;
      }

      .cls-5 {
        fill: #00ab47;
      }

      .cls-6 {
        fill: #fefefe;
      }

      .cls-7 {
        fill: #5f6368;
      }

      .cls-8 {
        fill: #0066d9;
      }

      .cls-9 {
        fill: #2684fb;
      }
    </style>
  </defs>
  <path class="cls-5" d="M209.69,55.15l42.53-33.26c5.39-2.59,11.89,2.3,11.45,8.2-.46,52.16.79,104.52-.63,156.57-2.06,5.01-7.63,6.79-12.31,4l-41.03-32.86v37.07c0,10.89-9.24,20.86-20.07,21.78-41.12.02-82.25.24-123.36.08l-1.27-.44v-64.06l1.27-.77c-.55-.18-.55-.39,0-.63l.44-1.27h78.98c-.27-13.95-.21-27.92,1.19-41.82.18-.55.39-.55.63,0l1.4-.5,59.46,47.5c1.24,2.67,1.19,1.92-.14-2.23-.35-15.21,0-30.96,1.47-46.03-.66-16.88-.4-33.81,0-50.69-.57-.12-.54-.33,0-.63Z"/>
  <path class="cls-7" d="M457.95,110.43h-42.98v-18.46h60.23c.86.98,1.12,3.34,1.24,4.75,2.9,34.66-17.96,63.43-53.29,67.04-49.16,5.02-89.29-41.17-71.53-88.88,16.18-43.47,74.91-58.41,108.3-25.01l-12.28,12.62c-7.63-6.37-15.97-10.99-25.98-12.38-41.99-5.85-69.68,41.31-45.88,75.74,21.87,31.64,77.43,25.78,82.17-15.42Z"/>
  <path class="cls-2" d="M209.69,55.15c0,.21,0,.42,0,.63-.07.4-.16.66-.63.63l-.7,1.79c-19.18,16.11-38.45,32.17-57.82,48.17l-3.05,1.37h-.63c-1.52-13.86-1.45-27.76-.58-41.64-26.68.82-53.36.24-80.03-.81l-1.27-.44V2.62L66.25.03l124.1-.03c25.48,3.91,19.21,36.08,19.33,55.15Z"/>
  <path class="cls-7" d="M1031.72,42.07v118.26h-15.49l.49-90.32c-.75.12-.93.94-1.26,1.49-12.35,20.76-23.66,42.19-35.77,63.08-.95,1.23-8.76,1.15-9.7.31l-36.31-63.54-1.41-.83,1,89.82h-15.49V42.07h15.24l41.49,71.86,41.98-71.86h15.24Z"/>
  <path class="cls-9" d="M66.25,65.29l1.27.44v84.33l-1.27.77v.63l-.44,1.27H2.07c.08,13.46.05,26.93-.1,40.41l-1.08,3.31c-1.05-.66-.63-2.4-.65-3.48-.53-42.49-.11-85.34.65-127.69l2.6-1.27h62l.77,1.27Z"/>
  <path class="cls-8" d="M66.25,151.47v65.27c-14.03-.05-30.44,1.1-44.13.02-11.39-.9-20.43-8.7-21.24-20.3-1.02-14.58.76-30.29,0-44.99h65.37Z"/>
  <path class="cls-7" d="M1253.13,54.54v24.95h19.99v13.22c0,.05-.7.75-.75.75h-19.24v44.16c0,.94,1.45,4.97,2.08,5.91,2.45,3.63,7.1,4.19,11.12,3.78,1.09-.11,2.58-1.16,3.46-.91,1,.28,4.78,11.47,4.79,13.38-12.74,4.18-29.64,2.48-35.04-11.6-.82-2.13-1.91-6.92-1.91-9.07v-45.66h-13.99v-13.97h13.99v-24.95h15.49Z"/>
  <rect class="cls-7" x="765.33" y="36.58" width="18.49" height="124.75"/>
  <polygon class="cls-4" points="66.25 65.29 .88 65.29 66.25 .03 66.25 65.29"/>
  <path class="cls-6" d="M66.25,65.29c26.86,0,53.75,0,80.61,0,0,14.14-.01,28.32,0,42.46.01,14.35-.01,28.74,0,43.09h-80.61v-85.54Z"/>
  <path class="cls-3" d="M209.69,106.48c.16,16.88.15,33.84-.32,50.7l-61.87-49.43c20.19-16.12,39.08-34.06,59.36-50.06.75-.59,1.46-.82,2.21-1.26.18,16.9.39,33.58.63,50.06Z"/>
  <path class="cls-1" d="M209.69,106.48c0-.11-.67-.99-.68-2.14-.16-15.97.21-31.96.05-47.92.21-.13.39-.47.63-.63.1,16.89-.08,33.8,0,50.69Z"/>
  <path class="cls-7" d="M752.33,81.49h-17.99v6.99c-25.09-23.48-62.36-.69-64,30.66-1.55,29.68,28.37,54.73,56.51,40.95l7.49-5.75v10.73c0,9.57-8.14,18.36-17.37,20.08-11.91,2.22-21.88-3.71-26.93-14.39l-16.18,6.03c12.16,33.03,63.24,35.13,75.35.62,2.13-6.08,2.61-11.95,3.15-18.31l-.02-77.62ZM710.66,147.29c-29.26-2.84-27.96-50.4,1.1-51.7,32.25-1.44,31.32,54.85-1.1,51.7Z"/>
  <path class="cls-7" d="M613.78,79.14c-30.66,3.13-46.37,38.64-30.97,64.56,18.64,31.37,68.59,25.31,78.2-10.42,8.33-31-15.73-57.35-47.23-54.14ZM620.65,147.37c-31.74,1.21-33.64-50.1-2.36-51.77,32.61-1.74,33.91,50.57,2.36,51.77Z"/>
  <path class="cls-7" d="M520.32,79.14c-30.74,3.12-46.36,38.51-30.97,64.56,18.38,31.12,68,25.44,77.91-9.71,8.81-31.23-14.98-58.1-46.94-54.85ZM527.19,147.37c-31.76,1.19-33.77-50.1-2.36-51.77,32.62-1.74,33.87,50.59,2.36,51.77Z"/>
  <path class="cls-7" d="M856.54,135.39c-9.44,15.62-33.54,16.56-41.68-.77l56.93-23.7c-7.06-22.76-26.54-37.78-50.99-30.19-27.68,8.59-35.87,44.85-19.19,67.08,15.42,20.55,47.5,21.64,64.94,3.04.79-.84,4.57-5.15,4.02-6l-14.03-9.46ZM849.79,104.43l-37.98,15.48c-2.25-20.33,26.65-35.01,37.98-15.48Z"/>
  <path class="cls-7" d="M1217.15,122.9c1.42-21.58-9.02-42.23-31.87-45.77-34.36-5.33-55.17,27.66-45.11,58.51,8.98,27.56,44.1,36.04,66,17.95,1.75-1.45,10.66-11,9.46-12.69-.41-.57-12.03-6.05-12.73-6.03-1.13.03-2.82,3.66-3.74,4.73-7.41,8.76-16.61,11.54-27.74,8.25-10.61-3.13-18.38-13.89-17.74-24.96h63.48ZM1201.15,109.93h-46.48c4.23-25.59,43.12-26.12,46.48,0Z"/>
  <path class="cls-7" d="M1127.68,116.17c-1.22-25.31-19.84-42.95-45.67-39.12-35.91,5.33-45.21,54.54-19.07,76.8,19.16,16.31,52.73,10.36,63.24-12.98l-13.18-5.93c-2.37,2.54-3.93,5.57-6.55,7.93-8.97,8.07-22.62,8.34-32.21,1.19-6.78-5.05-10.35-12.66-10.54-21.16h63.23c1.1,0,.8-5.59.75-6.73ZM1065.21,109.93c3.46-25.57,43.66-26.08,45.98,0h-45.98Z"/>
</svg>