<?xml version="1.0" encoding="UTF-8"?>
<svg id="Layer_1_Image" data-name="Layer 1 Image" xmlns="http://www.w3.org/2000/svg" viewBox="0 0 747.18 216.21">
  <defs>
    <style>
      .cls-1 {
        fill: #635bfe;
      }

      .cls-2 {
        fill: #665bff;
      }
    </style>
  </defs>
  <path class="cls-2" d="M352.86,86.12c-6.72-3.16-13.74-5.87-21.12-7.15-5.24-.9-18.07-2.77-21.43,2.33-6.51,9.89,15.26,14.57,21.01,16.76,13.43,5.1,24.79,11.72,27.44,27.09,3.77,21.93-9.85,37.54-30.55,41.99-16.83,3.62-34.79.53-50.56-5.85v-31.12c11.69,5.68,25.68,11.29,38.97,10.2,5.95-.49,11.9-4.67,8.44-11.17-2.99-5.62-18.9-9.77-24.99-12.36-17.53-7.46-27.01-18.32-23.09-38.5,6.38-32.86,51.42-33.35,75.88-22.73v30.49Z"/>
  <path class="cls-2" d="M397.69,23.39v28.38h24.9v27.51s-.35.37-.37.37h-24.53v49.41c0,.9.93,3.7,1.37,4.6,4.2,8.65,16.06,6.54,23.53,4.24v26.26c-1.64,1.12-3.72,1.8-5.62,2.34-25.52,7.31-50.2-2.95-51.42-31.71-.14-3.42.26-6.84.27-10.21.16-31.44-.14-62.88-.02-94.32l31.89-6.89Z"/>
  <path class="cls-2" d="M490.33,81.89c-7.15-2.38-16.26-1.28-22.05,3.73-.42.36-2.86,2.86-2.86,3.12v77.54h-32.62V51.77h28.39c.63,2.77.91,6.15,1.77,8.81.09.28.08.6.47.64,2-4.41,6.46-8.19,11.08-9.72,4.84-1.6,11.11-1.65,15.82.38v30Z"/>
  <rect class="cls-2" x="498.3" y="51.77" width="32.87" height="114.51"/>
  <polygon class="cls-2" points="531.17 8.2 531.17 34.47 498.3 41.81 498.3 15.3 531.17 8.2"/>
  <path class="cls-2" d="M637.48,75.83c-11.19-23.8-38.37-35.26-60.95-18.43-.51.38-2.13,1.97-2.4,2.09-.42.18-.33-.15-.4-.34-.4-1.1-1.28-7.44-1.84-7.63h-28.51v152.6l32.61-6.73.26-37.08c18.67,14.79,44.59,8.77,57.33-10.52,12.84-19.45,13.69-53.1,3.89-73.96ZM593.55,139.64c-6.06.59-13.59-1.22-17.3-6.35l-.25-48.03c2.59-3.65,7.69-6.08,12.15-6.53,31.09-3.16,30.04,58.52,5.4,60.91Z"/>
  <path class="cls-2" d="M733.52,64.71c-15.91-19.34-46.64-20.08-64.88-3.61-17.6,15.89-21.7,44.07-16.85,66.39,7.04,32.43,33.39,44.52,64.76,40.25,8.23-1.12,16.63-3.66,23.82-7.81v-26.01c-6.21,2.93-12.77,5.12-19.59,6.18-7.63,1.19-17.53,1.67-24.87-.95-7.84-2.8-12.5-9.68-12.82-17.93h63.75c1.26-19.44-.5-40.93-13.32-56.51ZM716.21,97.07h-33.62c-.49-9.56,5.11-20.18,15.55-20.92,12.32-.87,18.46,9.84,18.07,20.92Z"/>
  <g>
    <path class="cls-1" d="M137.06,97.61c-1.48.2-3.38,1.16-4.07,2.53l.1,18.67c5.77,4.74,11.66,1.65,13.18-5.19,1.48-6.68-.24-17.22-9.2-16.01Z"/>
    <path class="cls-1" d="M174.06,104.57h13.01c.31-10.83-13.27-10.61-13.01,0Z"/>
    <path class="cls-1" d="M106.31.01C53.39.87,8.51,40.44,1.1,92.74c-10.01,70.67,49.79,131.42,120.6,122.62,47.76-5.94,86.34-43.52,93.41-91.11C224.94,58.01,173.14-1.07,106.31.01ZM24.8,131.51c-.94-.19-7.01-1.78-7.01-2.48v-11.66c4.66,2.14,10.11,4.44,15.38,3.92,2.28-.23,4.32-2.09,2.96-4.4-1.34-2.29-10.11-4.57-13.04-6.37-5.42-3.32-7.07-9.19-4.9-15.13,4-10.93,19.7-10.41,28.7-6.91v11.97c-3.35-1.72-7.66-3.11-11.46-3.3-2.39-.12-6.21.31-5.1,3.66.35,1.07,1.65,1.71,2.59,2.15,6.7,3.16,15.51,3.73,16.42,13.3,1.36,14.31-13.36,17.47-24.55,15.25ZM73.73,97.76h-9.5v19.5c0,.42.8,1.99,1.13,2.38,1.88,2.19,5.96,1.56,8.37.61v10.21c-2.14,1.16-5.09,1.67-7.53,1.76-7.46.3-13.3-3.98-14.33-11.49l-.03-41.83,12.39-2.82v10.94h9.5v10.73ZM99.95,98.59c-2.82-.39-5.57-.53-7.99,1.19-.25.17-1.5,1.28-1.5,1.39v30.02h-12.8v-43.85s.29-.31.31-.31h10.53c.46.34.74,3.7,1.03,3.72,1.95-3.87,6.46-4.88,10.42-3.72v11.56ZM115.64,131.19h-12.59v-44.16h12.59v44.16ZM115.64,80.64l-12.59,2.68v-10.21l12.59-2.79v10.32ZM154.54,125.81c-4.28,5.75-12.13,8.13-18.74,4.95-.96-.46-1.8-1.26-2.81-1.63v13.93l-12.59,2.79v-58.81h11.15l.62,3.09c7.91-7.02,18.61-4.05,23.7,4.68,4.9,8.42,4.55,23.11-1.32,31ZM198.83,113.86h-24.57c.83,10.81,15.36,8.11,22.09,4.95v10.11c-2.31,1.11-4.69,2.08-7.22,2.59-10.92,2.17-21.96-.72-26.02-11.97-3.85-10.69-1.32-26.59,9.98-31.71,5.74-2.6,13.2-2.08,18.2,1.9,6.93,5.52,8.28,15.84,7.54,24.14Z"/>
  </g>
</svg>