<?xml version="1.0" encoding="UTF-8"?>
<svg id="Layer_1_Image" data-name="Layer 1 Image" xmlns="http://www.w3.org/2000/svg" viewBox="0 0 838.46 216.65">
  <defs>
    <style>
      .cls-1 {
        fill: #01d660;
      }

      .cls-2 {
        fill: #fff;
      }

      .cls-3 {
        fill: #466d52;
      }
    </style>
  </defs>
  <path class="cls-2" d="M8.35,209.87l40.53-10.74c80.75,51.63,184.32-18.3,165.09-112.93C198.46,9.92,108.2-25.42,44.76,20.45-3.1,55.05-13.8,120.84,18.59,169.98l-10.24,39.89Z"/>
  <path class="cls-1" d="M28.36,188.96l8.19-31.89c-25.9-39.28-17.35-91.88,20.92-119.54C108.19.86,180.35,29.11,192.74,90.09c15.37,75.65-67.43,131.56-131.98,90.28l-32.4,8.59ZM62.22,106.2c15.33,24.93,38.3,45.93,68.21,50.98,13.21,2.23,28.73-4.16,30.27-18.87.48-4.55.76-5.95-3.28-8.11-4.55-2.43-10.79-5.47-15.53-7.5-2.31-.99-6.06-3.08-8.47-2.06-2.04.87-7.76,10.98-10.77,12.72-2.33,1.34-5.39-.56-7.63-1.53-11.33-4.89-21.54-13.66-28.52-23.76-1.69-2.44-5.24-6.64-3.96-9.54,1.65-3.74,9.13-7.78,8.21-13.39-3.21-6.69-5.25-15.04-8.79-21.44-1.56-2.81-2.53-3.87-5.87-4.21-8.05-.83-12.07,2.21-16.26,8.67-7.93,12.2-4.68,26.53,2.4,38.03Z"/>
  <polygon class="cls-3" points="278.24 64.09 292.48 123.92 307.95 64.5 326.56 64.11 341.23 124.75 356.5 64.09 375.13 64.09 351.67 152.76 332.28 152.81 317.37 92.96 302.27 152.74 282.24 152.76 259.2 64.09 278.24 64.09"/>
  <path class="cls-3" d="M700.32,152.78h-19.88l-6.89-19.47-32.47-.22-7.31,19.69h-19.67l33.32-88.72c5.95.57,13-.67,18.81,0,.6.07,1.1.04,1.41.69l32.68,88.03ZM645.49,118.48h23.02l-11.09-32.22-11.92,32.22Z"/>
  <path class="cls-3" d="M790.71,144.83v30.54h-16.95s-.63-.58-.63-.63v-85.76s.58-.63.63-.63h16.11v8.37c9.43-13.95,30.8-12.64,41.01-.2s10.19,35.91.42,48.09c-10.29,12.83-30.44,13.46-40.59.22ZM803.59,100.19c-17.39,1.88-17.68,35.91-2.84,40.25,26.23,7.67,26.93-42.86,2.84-40.25Z"/>
  <path class="cls-3" d="M719.99,96.72c.81-.54,1.17-1.69,1.88-2.51,8.94-10.39,27.14-9.36,36.63-.22,12.48,12.02,13.04,39.01,1.65,51.87-8.98,10.15-26.76,11.82-36.67,2.17-.86-.84-1.67-2.46-2.66-3.2v29.91s-.58.63-.63.63h-16.95v-86.6h16.74v7.95ZM733.28,100.19c-18.28,2.09-19.06,43.65,4.86,40.84,17.86-2.1,17.55-43.39-4.86-40.84Z"/>
  <path class="cls-3" d="M396.89,64.09v33.47l5.66-6.27c13.69-9.87,36.61-3.33,36.61,15.68v45.81h-17.58v-40.79c0-1.15-1.2-4.98-1.8-6.15-3.55-7.02-15.67-6.46-19.97-.54-1.1,1.52-2.93,7.02-2.93,8.78v38.7h-17.58v-88.69h17.58Z"/>
  <path class="cls-3" d="M509.05,152.78h-17.37c-.88,0-1.34-5-1.67-5.85-13.55,12.51-44.78,10.53-43.31-13.18,1.08-17.5,18.2-17.01,31.12-19.09,3.75-.6,10.88-1.45,11.52-6.05.81-5.8-2.52-9.23-8.13-9.79-7.43-.74-14.21,1.13-14.85,9.62h-17.58c.07-10.29,7.65-17.37,17.07-19.96,11.96-3.29,39.13-3.02,41.06,13.52,1.72,14.77-1.82,31.75,1.01,46.69.27,1.41.83,2.71,1.13,4.1ZM489.38,121.41c-6.7,4.95-24.93.92-25.12,12.78-.16,10.27,15.11,10.54,20.94,5.42,1.87-1.64,4.18-5.95,4.18-8.37v-9.83Z"/>
  <path class="cls-3" d="M612.43,107.6h-16.11c-1.31-2.58-1.14-4.87-3.76-6.7-4.54-3.15-19.47-3.79-18.55,4.28.48,4.16,6.03,5.63,9.37,6.56,10.32,2.9,27.87,3.52,30.63,16.66,2.52,11.99-5.33,21.68-16.64,24.59-16.35,4.21-42.53.33-42.27-21.13h16.74c-1.61,13.58,26.8,14.41,24.67,1.49-.69-4.22-8.08-5.81-11.61-6.81-12.34-3.47-30.07-4.05-28.5-21.61,1.04-11.61,10.67-16.47,21.13-17.78,14.98-1.89,34.36,2.12,34.89,20.45Z"/>
  <path class="cls-3" d="M540.02,69.53v18.83h12.56v12.13h-12.56v34.93c0,.22.97,2.23,1.24,2.53,2,2.21,8.58,1.55,11.32,1.03v13.81c-5.89.44-13.11,1.05-18.92-.12-8.07-1.63-11.11-6.36-11.65-14.29l.02-37.88h-10.46c.31-3.38-.41-7.4-.02-10.69.05-.42.19-1.44.65-1.44h9.84v-18.83h18Z"/>
</svg>