<svg width="21" height="21" viewBox="0 0 21 21" fill="none" xmlns="http://www.w3.org/2000/svg">
<g id="check-circle-1">
<path id="Shape" d="M10.7269 0.0787354C5.20405 0.0787354 0.726898 4.55589 0.726898 10.0787C0.726898 15.6016 5.20405 20.0787 10.7269 20.0787C16.2497 20.0787 20.7269 15.6016 20.7269 10.0787C20.7205 4.55855 16.2471 0.0851643 10.7269 0.0787354Z" fill="url(#paint0_linear_30_1143)"/>
<path id="Path" d="M16.4994 6.91205L10.7952 14.6529C10.6592 14.8334 10.4563 14.9516 10.2323 14.9811C10.0082 15.0106 9.78164 14.9487 9.60358 14.8095L5.53024 11.5529C5.1708 11.2652 5.11259 10.7407 5.40024 10.3812C5.68789 10.0218 6.21246 9.96357 6.57191 10.2512L9.96858 12.9687L15.1577 5.92621C15.3279 5.67087 15.6246 5.5297 15.9301 5.55875C16.2356 5.58779 16.5003 5.78236 16.6193 6.06519C16.7383 6.34803 16.6922 6.67337 16.4994 6.91205Z" fill="black"/>
</g>
<defs>
<linearGradient id="paint0_linear_30_1143" x1="0.726898" y1="0.0787354" x2="20.7269" y2="20.0787" gradientUnits="userSpaceOnUse">
<stop stop-color="#22C55E"/>
<stop offset="1" stop-color="#118D57"/>
</linearGradient>
</defs>
</svg>
