<svg width="20" height="21" viewBox="0 0 20 21" fill="none" xmlns="http://www.w3.org/2000/svg">
<path d="M10 0.506104C4.47715 0.506104 0 4.98326 0 10.5061C0 16.029 4.47715 20.5061 10 20.5061C15.5228 20.5061 20 16.029 20 10.5061C19.9936 4.98592 15.5202 0.512532 10 0.506104Z" fill="#DAEEE6"/>
<path d="M15.7725 7.33942L10.0683 15.0802C9.93228 15.2607 9.72942 15.379 9.50533 15.4085C9.28124 15.4379 9.05472 15.3761 8.87665 15.2369L4.80331 11.9802C4.44387 11.6926 4.38567 11.168 4.67331 10.8086C4.96096 10.4491 5.48554 10.3909 5.84498 10.6786L9.24165 13.3961L14.4308 6.35358C14.601 6.09824 14.8977 5.95707 15.2032 5.98611C15.5086 6.01516 15.7734 6.20972 15.8924 6.49256C16.0114 6.77539 15.9653 7.10074 15.7725 7.33942Z" fill="#2EAE7B"/>
</svg>
