<svg width="40" height="40" viewBox="0 0 40 40" fill="none" xmlns="http://www.w3.org/2000/svg">
<path opacity="0.5" d="M3.33331 13.3335V20.0002C3.33331 24.7135 3.33331 27.0718 4.79831 28.5352C5.59165 29.3302 6.64831 29.6935 8.19831 29.8602C8.32331 29.6935 8.43998 29.5618 8.52331 29.4702C8.71665 29.2568 8.96165 29.0152 9.19998 28.7802L11.6883 26.3268L12.6066 25.3968C12.9062 23.6531 13.8126 22.0713 15.1654 20.9311C16.5183 19.7908 18.2307 19.1654 20 19.1654C21.7693 19.1654 23.4817 19.7908 24.8345 20.9311C26.1874 22.0713 27.0937 23.6531 27.3933 25.3968L28.3116 26.3268L30.8 28.7802C31.0383 29.0152 31.2833 29.2568 31.4766 29.4702C31.56 29.5618 31.6766 29.6935 31.8 29.8602C33.3516 29.6935 34.4083 29.3302 35.2016 28.5352C36.6666 27.0718 36.6666 24.7135 36.6666 20.0002V13.3335C36.6666 8.62016 36.6666 6.26183 35.2016 4.7985C33.7383 3.3335 31.38 3.3335 26.6666 3.3335H13.3333C8.61998 3.3335 6.26165 3.3335 4.79831 4.7985C3.33331 6.26183 3.33331 8.62016 3.33331 13.3335Z" fill="#2EAE7B"/>
<path d="M11.6667 14.5833C11.3352 14.5833 11.0172 14.715 10.7828 14.9495C10.5484 15.1839 10.4167 15.5018 10.4167 15.8333C10.4167 16.1649 10.5484 16.4828 10.7828 16.7172C11.0172 16.9516 11.3352 17.0833 11.6667 17.0833H28.3333C28.6649 17.0833 28.9828 16.9516 29.2172 16.7172C29.4517 16.4828 29.5833 16.1649 29.5833 15.8333C29.5833 15.5018 29.4517 15.1839 29.2172 14.9495C28.9828 14.715 28.6649 14.5833 28.3333 14.5833H11.6667ZM13.75 10C13.75 9.66848 13.8817 9.35054 14.1161 9.11612C14.3506 8.8817 14.6685 8.75 15 8.75H25C25.3315 8.75 25.6495 8.8817 25.8839 9.11612C26.1183 9.35054 26.25 9.66848 26.25 10C26.25 10.3315 26.1183 10.6495 25.8839 10.8839C25.6495 11.1183 25.3315 11.25 25 11.25H15C14.6685 11.25 14.3506 11.1183 14.1161 10.8839C13.8817 10.6495 13.75 10.3315 13.75 10ZM15.0017 26.5283L15 26.6667C15.0024 27.9868 15.5267 29.2523 16.4586 30.1873C17.3904 31.1224 18.6543 31.6509 19.9744 31.6577C21.2944 31.6644 22.5636 31.1489 23.505 30.2235C24.4465 29.2981 24.9837 28.038 24.9996 26.718C25.0155 25.398 24.5088 24.1252 23.5899 23.1774C22.6711 22.2296 21.4147 21.6837 20.0948 21.6586C18.775 21.6336 17.4988 22.1315 16.5446 23.0438C15.5905 23.9561 15.0358 25.2087 15.0017 26.5283ZM12.7933 28.75L10.9933 30.525C10.4517 31.0583 10.1817 31.325 10.0883 31.5483C9.98234 31.7881 9.9679 32.0584 10.0478 32.3081C10.1276 32.5578 10.2962 32.7696 10.5217 32.9033C10.725 33.0217 11.0917 33.0583 11.8267 33.1333C12.24 33.175 12.4483 33.195 12.6217 33.2583C12.8119 33.327 12.985 33.4363 13.1288 33.5784C13.2727 33.7206 13.384 33.8923 13.455 34.0817C13.52 34.2533 13.5417 34.4567 13.5833 34.865C13.6583 35.59 13.6967 35.9517 13.8167 36.1533C13.9568 36.3769 14.1723 36.5429 14.4243 36.6211C14.6762 36.6994 14.9479 36.6848 15.19 36.58C15.4183 36.4867 15.69 36.2217 16.2283 35.6883L18.0283 33.905C16.7873 33.5655 15.6542 32.9131 14.7376 32.0101C13.821 31.1072 13.1515 29.9858 12.7933 28.75ZM21.97 33.905L23.77 35.6883C24.3117 36.2217 24.5817 36.4883 24.81 36.58C25.3317 36.79 25.91 36.61 26.1833 36.1533C26.3033 35.9533 26.3417 35.59 26.4167 34.8667C26.4583 34.4567 26.48 34.2533 26.545 34.0833C26.6159 33.8937 26.7271 33.7217 26.871 33.5793C27.0149 33.4368 27.188 33.3273 27.3783 33.2583C27.5533 33.195 27.76 33.175 28.1733 33.1333C28.9067 33.0583 29.275 33.0217 29.4783 32.9033C29.7038 32.7696 29.8724 32.5578 29.9523 32.3081C30.0321 32.0584 30.0177 31.7881 29.9117 31.5483C29.8183 31.3233 29.5483 31.0567 29.0083 30.525L27.2083 28.7483C26.8499 29.9845 26.1799 31.1079 25.2627 32.0108C24.3454 32.9138 23.2117 33.566 21.97 33.905Z" fill="#2EAE7B"/>
</svg>
