<svg width="42" height="42" viewBox="0 0 42 42" fill="none" xmlns="http://www.w3.org/2000/svg">
<path opacity="0.32" d="M3.99173 34.4006C4.1469 35.9032 5.13206 37.0926 6.60953 37.4071C8.94163 37.9036 13.3378 38.5 21 38.5C28.6622 38.5 33.0584 37.9036 35.3905 37.4071C36.868 37.0926 37.8531 35.9032 38.0083 34.4006C38.2384 32.1727 38.5 28.0822 38.5 21C38.5 13.9178 38.2384 9.8273 38.0083 7.59939C37.8531 6.0968 36.868 4.90742 35.3904 4.59288C33.0584 4.09642 28.6622 3.5 21 3.5C13.3378 3.5 8.94163 4.09642 6.60953 4.59288C5.13206 4.90742 4.1469 6.0968 3.99173 7.59939C3.76166 9.8273 3.5 13.9178 3.5 21C3.5 28.0822 3.76166 32.1727 3.99173 34.4006Z" fill="#2EAE7B"/>
<path d="M24.3918 24.2477C26.7102 23.0269 28.291 20.5939 28.291 17.7916C28.291 13.7646 25.0263 10.5 20.9992 10.5C16.9722 10.5 13.7076 13.7646 13.7076 17.7916C13.7076 20.594 15.2885 23.0272 17.607 24.2479C14.5021 25.4309 12.1313 28.1911 11.3969 31.5926C11.2953 32.0633 11.5543 32.5466 12.0285 32.6324C13.7302 32.9403 16.5483 33.25 21.0011 33.25C25.4538 33.25 28.2719 32.9403 29.9736 32.6324C30.446 32.5469 30.7044 32.0655 30.6032 31.5964C29.8698 28.193 27.4982 25.4311 24.3918 24.2477Z" fill="#2EAE7B"/>
</svg>
