<svg width="46" height="46" viewBox="0 0 46 46" fill="none" xmlns="http://www.w3.org/2000/svg">
<g id="Logo green">
<path id="Vector" d="M43.9434 28.1394C41.7164 25.6847 37.3196 25.7156 36.1349 25.7729V20.9605C37.3152 21.0119 41.7164 21.0428 43.9434 18.5896C44.6862 17.7773 45.4848 16.3347 45.1016 14.0813C44.7537 12.0351 43.456 10.4985 41.5417 9.86833C40.2704 9.44673 38.6423 9.8081 37.1831 10.832C34.9473 12.3994 33.5894 15.1184 33.4206 18.3237H27.8993V12.5727C31.0115 12.3509 33.6378 11.0009 35.1734 8.81507C36.1937 7.36079 36.5577 5.73171 36.1364 4.45811C35.5022 2.54257 33.9667 1.244 31.9217 0.89292C29.6727 0.510988 28.2326 1.31451 27.4164 2.05194C25.3068 3.97188 25.0338 7.50328 25.0338 9.20582C25.0338 9.47464 25.0426 9.69646 25.0514 9.86098H20.2421C20.2935 8.67552 20.3199 4.28036 17.8771 2.05194C17.0609 1.31305 15.6193 0.509519 13.3718 0.89292C11.3268 1.244 9.79128 2.54404 9.15709 4.45811C9.04405 4.80626 8.98827 5.18378 8.98827 5.57453C8.98827 6.61309 9.37876 7.75889 10.1216 8.81507C11.7056 11.0773 14.4713 12.442 17.7259 12.5845V18.3222H12.5688C12.3823 15.1434 11.0273 12.4581 8.80917 10.8995C7.35142 9.8742 5.72338 9.51431 4.45061 9.93149C2.53631 10.5661 1.23857 12.1026 0.890652 14.1489C0.824591 14.5529 0.793762 14.926 0.793762 15.2785C0.793762 16.8944 1.44556 17.9888 2.05186 18.6572C4.29646 21.1236 8.74457 21.081 9.8867 21.0237V25.836C8.74017 25.7846 4.29646 25.7361 2.05186 28.2069C1.44556 28.8768 0.793762 29.9668 0.793762 31.587C0.793762 31.9352 0.824591 32.3127 0.893588 32.7123C1.24151 34.7586 2.53924 36.2951 4.45354 36.9297C5.72485 37.3513 7.35289 36.9899 8.8121 35.966C11.0391 34.4031 12.397 31.6928 12.5717 28.4993H17.7289V33.4115C14.4346 33.5334 11.6351 34.901 10.0335 37.1853C9.29068 38.24 8.89578 39.3917 8.89578 40.4258C8.89578 40.8166 8.95157 41.1941 9.06901 41.5423C9.69879 43.4622 11.2343 44.7608 13.2793 45.1074C15.5327 45.4894 16.9728 44.6859 17.7847 43.9484C20.2421 41.7156 20.2069 37.3028 20.154 36.1306H24.9633C24.9545 36.2951 24.9457 36.5213 24.9457 36.799C24.9457 38.4971 25.2187 42.0285 27.3283 43.9484C28.1401 44.6873 29.5846 45.4908 31.8336 45.1074C33.8786 44.7593 35.4141 43.4607 36.0439 41.5423C36.4653 40.2701 36.1041 38.641 35.0809 37.1853C33.5659 35.023 30.9704 33.6803 27.9023 33.4409V28.4978H33.4279C33.6188 31.6605 34.9737 34.3399 37.1875 35.8941C38.6453 36.9194 40.2733 37.2793 41.5461 36.8577C43.4604 36.2275 44.7581 34.691 45.106 32.6447C45.4921 30.3942 44.6891 28.9488 43.9478 28.1364L43.9434 28.1394ZM17.5571 9.89183C14.3363 9.6612 12.8301 8.00273 12.3177 7.27266C11.6836 6.37365 11.6058 5.60097 11.7056 5.3013C12.1093 4.07177 13.0767 3.6678 13.8195 3.53854C15.104 3.32113 15.7206 3.72069 16.0685 4.03799C17.3149 5.16762 17.5791 7.76035 17.5791 9.24548C17.5791 9.49668 17.5703 9.71849 17.5571 9.8933V9.89183ZM7.26921 33.7685C6.37078 34.4031 5.5986 34.4809 5.29472 34.381C4.07039 33.9771 3.66228 33.009 3.5375 32.2657C3.32023 30.9804 3.71513 30.3634 4.03222 30.0152C5.35197 28.5566 8.68145 28.4434 9.88816 28.5257C9.65768 31.7486 8.00029 33.2558 7.27068 33.7685H7.26921ZM9.8867 18.3369C8.67998 18.4192 5.35051 18.3061 4.03075 16.8518C3.71366 16.5007 3.31876 15.8838 3.53603 14.6013C3.66228 13.858 4.07039 12.8856 5.29325 12.4816C5.59713 12.3817 6.36931 12.464 7.26774 13.0942C7.99735 13.6069 9.65034 15.1096 9.88523 18.3237V18.3369H9.8867ZM15.9761 41.9653C15.6252 42.287 15.013 42.6822 13.727 42.4648C12.9842 42.3384 12.0168 41.9301 11.6087 40.7064C11.5089 40.4023 11.5911 39.6297 12.2209 38.7306C12.7332 38.0006 14.2438 36.3421 17.4646 36.1115C17.5424 37.319 17.4294 40.6462 15.9761 41.9668V41.9653ZM17.7259 25.8169H12.5688V21.0046H17.7259V25.8169ZM25.2173 33.4482H20.408V28.5007H25.2173V33.4482ZM25.2173 25.8169H20.408V21.0046H25.2173V25.8169ZM25.2173 18.3252H20.408V12.5492H25.2173V18.3252ZM29.2235 4.03945C29.5744 3.72216 30.1909 3.3226 31.4725 3.54C32.2153 3.67074 33.1872 4.07471 33.5909 5.30277C33.6129 5.3674 33.6261 5.45848 33.6261 5.57159C33.6261 5.95352 33.4705 6.5793 32.9787 7.27413C32.4752 7.99098 31.013 9.60685 27.9008 9.88008V9.86245H27.7408C27.6586 8.63292 27.7848 5.34978 29.225 4.03799L29.2235 4.03945ZM32.8862 38.7292C33.516 39.6282 33.5982 40.4009 33.4984 40.7049C33.0947 41.9301 32.1228 42.3384 31.38 42.4633C30.0955 42.6807 29.4833 42.2856 29.131 41.9639C27.685 40.6521 27.5646 37.3557 27.6424 36.1306H27.8979C30.9499 36.4302 32.3856 38.0197 32.8847 38.7277L32.8862 38.7292ZM33.4499 25.8169H27.8979V21.0046H33.4499V25.8169ZM38.7231 13.0251C39.6215 12.395 40.3937 12.3127 40.6976 12.4126C41.9219 12.821 42.33 13.789 42.4548 14.5323C42.4988 14.7879 42.5194 15.0185 42.5194 15.2271C42.5194 16.0527 42.2111 16.4993 41.9601 16.7828C40.6403 18.237 37.3108 18.3502 36.1041 18.2723C36.3346 15.0494 37.992 13.5378 38.7216 13.0251H38.7231ZM42.4562 32.1967C42.33 32.94 41.9219 33.9124 40.699 34.3164C40.3951 34.4163 39.623 34.334 38.7245 33.7038C38.0037 33.1956 36.3507 31.6972 36.1115 28.5007H36.1335V28.4567C37.3578 28.3788 40.6521 28.5007 41.963 29.9462C42.214 30.2282 42.5223 30.6763 42.5223 31.5018C42.5223 31.7104 42.5003 31.9411 42.4577 32.1967H42.4562Z" fill="#2EAE7B"/>
</g>
</svg>
