<svg width="168" height="174" viewBox="0 0 168 174" fill="none" xmlns="http://www.w3.org/2000/svg">
<g filter="url(#filter0_d_15_5497)">
<path d="M78.0251 26.0554C81.7251 23.9311 86.2749 23.9311 89.9749 26.0554L101.643 32.7546L113.246 39.3535C117.005 41.4911 119.323 45.4855 119.314 49.8094L119.286 63L119.314 76.1906C119.323 80.5145 117.005 84.5089 113.246 86.6465L101.643 93.2454L89.9749 99.9446C86.2749 102.069 81.7251 102.069 78.0251 99.9446L66.3569 93.2454L54.7539 86.6465C50.9954 84.5089 48.6774 80.5145 48.6864 76.1906L48.7137 63L48.6864 49.8094C48.6774 45.4855 50.9954 41.4911 54.7539 39.3535L66.3569 32.7546L78.0251 26.0554Z" fill="white"/>
</g>
<path d="M104.943 68.1394C102.716 65.6847 98.3196 65.7156 97.1349 65.7729V60.9605C98.3152 61.0119 102.716 61.0428 104.943 58.5896C105.686 57.7773 106.485 56.3347 106.102 54.0813C105.754 52.0351 104.456 50.4985 102.542 49.8683C101.27 49.4467 99.6423 49.8081 98.1831 50.832C95.9473 52.3994 94.5894 55.1184 94.4206 58.3237H88.8993V52.5727C92.0115 52.3509 94.6378 51.0009 96.1734 48.8151C97.1937 47.3608 97.5577 45.7317 97.1364 44.4581C96.5022 42.5426 94.9667 41.244 92.9217 40.8929C90.6727 40.511 89.2326 41.3145 88.4164 42.0519C86.3068 43.9719 86.0338 47.5033 86.0338 49.2058C86.0338 49.4746 86.0426 49.6965 86.0514 49.861H81.2421C81.2935 48.6755 81.3199 44.2804 78.8771 42.0519C78.0609 41.313 76.6193 40.5095 74.3718 40.8929C72.3268 41.244 70.7913 42.544 70.1571 44.4581C70.0441 44.8063 69.9883 45.1838 69.9883 45.5745C69.9883 46.6131 70.3788 47.7589 71.1216 48.8151C72.7056 51.0773 75.4713 52.442 78.7259 52.5845V58.3222H73.5688C73.3823 55.1434 72.0273 52.4581 69.8092 50.8995C68.3514 49.8742 66.7234 49.5143 65.4506 49.9315C63.5363 50.5661 62.2386 52.1026 61.8907 54.1489C61.8246 54.5529 61.7938 54.926 61.7938 55.2785C61.7938 56.8944 62.4456 57.9888 63.0519 58.6572C65.2965 61.1236 69.7446 61.081 70.8867 61.0237V65.836C69.7402 65.7846 65.2965 65.7361 63.0519 68.2069C62.4456 68.8768 61.7938 69.9668 61.7938 71.587C61.7938 71.9352 61.8246 72.3127 61.8936 72.7123C62.2415 74.7586 63.5392 76.2951 65.4535 76.9297C66.7249 77.3513 68.3529 76.9899 69.8121 75.966C72.0391 74.4031 73.397 71.6928 73.5717 68.4993H78.7289V73.4115C75.4346 73.5334 72.6351 74.901 71.0335 77.1853C70.2907 78.24 69.8958 79.3917 69.8958 80.4258C69.8958 80.8166 69.9516 81.1941 70.069 81.5423C70.6988 83.4622 72.2343 84.7608 74.2793 85.1074C76.5327 85.4894 77.9728 84.6859 78.7847 83.9484C81.2421 81.7156 81.2069 77.3028 81.154 76.1306H85.9633C85.9545 76.2951 85.9457 76.5213 85.9457 76.799C85.9457 78.4971 86.2187 82.0285 88.3283 83.9484C89.1401 84.6873 90.5846 85.4908 92.8336 85.1074C94.8786 84.7593 96.4141 83.4607 97.0439 81.5423C97.4653 80.2701 97.1041 78.641 96.0809 77.1853C94.5659 75.023 91.9704 73.6803 88.9023 73.4409V68.4978H94.4279C94.6188 71.6605 95.9737 74.3399 98.1875 75.8941C99.6453 76.9194 101.273 77.2793 102.546 76.8577C104.46 76.2275 105.758 74.691 106.106 72.6447C106.492 70.3942 105.689 68.9488 104.948 68.1364L104.943 68.1394ZM78.5571 49.8918C75.3363 49.6612 73.8301 48.0027 73.3177 47.2727C72.6836 46.3736 72.6058 45.601 72.7056 45.3013C73.1093 44.0718 74.0767 43.6678 74.8195 43.5385C76.104 43.3211 76.7206 43.7207 77.0685 44.038C78.3149 45.1676 78.5791 47.7604 78.5791 49.2455C78.5791 49.4967 78.5703 49.7185 78.5571 49.8933V49.8918ZM68.2692 73.7685C67.3708 74.4031 66.5986 74.4809 66.2947 74.381C65.0704 73.9771 64.6623 73.009 64.5375 72.2657C64.3202 70.9804 64.7151 70.3634 65.0322 70.0152C66.352 68.5566 69.6814 68.4434 70.8882 68.5257C70.6577 71.7486 69.0003 73.2558 68.2707 73.7685H68.2692ZM70.8867 58.3369C69.68 58.4192 66.3505 58.3061 65.0308 56.8518C64.7137 56.5007 64.3188 55.8838 64.536 54.6013C64.6623 53.858 65.0704 52.8856 66.2933 52.4816C66.5971 52.3817 67.3693 52.464 68.2677 53.0942C68.9974 53.6069 70.6503 55.1096 70.8852 58.3237V58.3369H70.8867ZM76.9761 81.9653C76.6252 82.287 76.013 82.6822 74.727 82.4648C73.9842 82.3384 73.0168 81.9301 72.6087 80.7064C72.5089 80.4023 72.5911 79.6297 73.2209 78.7306C73.7332 78.0006 75.2438 76.3421 78.4646 76.1115C78.5424 77.319 78.4294 80.6462 76.9761 81.9668V81.9653ZM78.7259 65.8169H73.5688V61.0046H78.7259V65.8169ZM86.2173 73.4482H81.408V68.5007H86.2173V73.4482ZM86.2173 65.8169H81.408V61.0046H86.2173V65.8169ZM86.2173 58.3252H81.408V52.5492H86.2173V58.3252ZM90.2235 44.0395C90.5744 43.7222 91.1909 43.3226 92.4725 43.54C93.2153 43.6707 94.1872 44.0747 94.5909 45.3028C94.6129 45.3674 94.6261 45.4585 94.6261 45.5716C94.6261 45.9535 94.4705 46.5793 93.9787 47.2741C93.4752 47.991 92.013 49.6068 88.9008 49.8801V49.8625H88.7408C88.6586 48.6329 88.7848 45.3498 90.225 44.038L90.2235 44.0395ZM93.8862 78.7292C94.516 79.6282 94.5982 80.4009 94.4984 80.7049C94.0947 81.9301 93.1228 82.3384 92.38 82.4633C91.0955 82.6807 90.4833 82.2856 90.131 81.9639C88.685 80.6521 88.5646 77.3557 88.6424 76.1306H88.8979C91.9499 76.4302 93.3856 78.0197 93.8847 78.7277L93.8862 78.7292ZM94.4499 65.8169H88.8979V61.0046H94.4499V65.8169ZM99.7231 53.0251C100.621 52.395 101.394 52.3127 101.698 52.4126C102.922 52.821 103.33 53.789 103.455 54.5323C103.499 54.7879 103.519 55.0185 103.519 55.2271C103.519 56.0527 103.211 56.4993 102.96 56.7828C101.64 58.237 98.3108 58.3502 97.1041 58.2723C97.3346 55.0494 98.992 53.5378 99.7216 53.0251H99.7231ZM103.456 72.1967C103.33 72.94 102.922 73.9124 101.699 74.3164C101.395 74.4163 100.623 74.334 99.7245 73.7038C99.0037 73.1956 97.3507 71.6972 97.1115 68.5007H97.1335V68.4567C98.3578 68.3788 101.652 68.5007 102.963 69.9462C103.214 70.2282 103.522 70.6763 103.522 71.5018C103.522 71.7104 103.5 71.9411 103.458 72.1967H103.456Z" fill="#2EAE7B"/>
<defs>
<filter id="filter0_d_15_5497" x="0.686348" y="0.462402" width="166.627" height="173.075" filterUnits="userSpaceOnUse" color-interpolation-filters="sRGB">
<feFlood flood-opacity="0" result="BackgroundImageFix"/>
<feColorMatrix in="SourceAlpha" type="matrix" values="0 0 0 0 0 0 0 0 0 0 0 0 0 0 0 0 0 0 127 0" result="hardAlpha"/>
<feOffset dy="24"/>
<feGaussianBlur stdDeviation="24"/>
<feComposite in2="hardAlpha" operator="out"/>
<feColorMatrix type="matrix" values="0 0 0 0 0.568627 0 0 0 0 0.619608 0 0 0 0 0.670588 0 0 0 0.16 0"/>
<feBlend mode="normal" in2="BackgroundImageFix" result="effect1_dropShadow_15_5497"/>
<feBlend mode="normal" in="SourceGraphic" in2="effect1_dropShadow_15_5497" result="shape"/>
</filter>
</defs>
</svg>
