<svg width="44" height="44" viewBox="0 0 44 44" fill="none" xmlns="http://www.w3.org/2000/svg">
<path opacity="0.5" d="M11.4766 39.2114H11C9.27115 39.2114 8.40765 39.2114 7.87048 38.6742C7.33331 38.1407 7.33331 37.2754 7.33331 35.5465V33.5079C7.33331 32.5582 7.33331 32.0834 7.57715 31.658C7.82098 31.2345 8.18948 31.02 8.92648 30.591C13.7775 27.7695 20.6653 26.1819 25.2615 28.9227C25.5695 29.1079 25.8481 29.3315 26.0865 29.5974C26.3327 29.8672 26.5224 30.1836 26.6443 30.528C26.7662 30.8723 26.818 31.2376 26.7964 31.6023C26.7749 31.9669 26.6806 32.3236 26.5189 32.6512C26.3573 32.9788 26.1317 33.2707 25.8555 33.5097C25.6351 33.7191 25.3661 33.8703 25.0726 33.9497C25.2926 33.924 25.5035 33.8947 25.7051 33.8635C27.3753 33.5977 28.7778 32.703 30.0611 31.7332L33.3758 29.2307C33.9672 28.8006 34.6796 28.5689 35.4108 28.5689C36.142 28.5689 36.8545 28.8006 37.4458 29.2307C38.4963 30.0245 38.819 31.3317 38.1535 32.3987C37.378 33.6417 36.2853 35.2312 35.2366 36.2029C34.1861 37.1745 32.6223 38.0435 31.3463 38.6595C29.931 39.3434 28.369 39.7357 26.7795 39.9942C23.5565 40.5149 20.1978 40.4342 17.0078 39.7779C15.1878 39.4036 13.3347 39.2126 11.4766 39.2114Z" fill="#2EAE7B"/>
<path d="M12.0743 4.74084C11.4015 5.41367 11.1503 6.34134 11.0568 7.7915C12.1315 7.77679 13.158 7.34321 13.9178 6.58305C14.6776 5.82289 15.1108 4.79619 15.125 3.7215C13.6767 3.81684 12.7472 4.068 12.0743 4.74084ZM31.9257 4.74084C31.2528 4.068 30.3252 3.81684 28.875 3.72334C28.8897 4.79802 29.3233 5.82452 30.0835 6.58434C30.8436 7.34415 31.8703 7.77727 32.945 7.7915C32.8497 6.34317 32.5985 5.41367 31.9257 4.74084ZM31.9257 17.2588C31.2528 17.9317 30.3252 18.1828 28.875 18.2763C28.8897 17.2017 29.3233 16.1752 30.0835 15.4153C30.8436 14.6555 31.8703 14.2224 32.945 14.2082C32.8497 15.6565 32.5985 16.586 31.9257 17.2588ZM12.0743 17.2588C12.7472 17.9317 13.6748 18.1828 15.125 18.2763C15.1103 17.2017 14.6767 16.1752 13.9165 15.4153C13.1564 14.6555 12.1297 14.2224 11.055 14.2082C11.1503 15.6565 11.4015 16.586 12.0743 17.2588Z" fill="#2EAE7B"/>
<path fill-rule="evenodd" clip-rule="evenodd" d="M11 10.5415C12.8234 10.5415 14.572 9.81718 15.8614 8.52786C17.1507 7.23855 17.875 5.48987 17.875 3.6665H26.125C26.125 5.48987 26.8493 7.23855 28.1386 8.52786C29.428 9.81718 31.1766 10.5415 33 10.5415V11.4582C31.1766 11.4582 29.428 12.1825 28.1386 13.4718C26.8493 14.7611 26.125 16.5098 26.125 18.3332H17.875C17.875 16.5098 17.1507 14.7611 15.8614 13.4718C14.572 12.1825 12.8234 11.4582 11 11.4582V10.5415ZM22 12.8332C22.4862 12.8332 22.9525 12.64 23.2964 12.2962C23.6402 11.9524 23.8333 11.4861 23.8333 10.9998C23.8333 10.5136 23.6402 10.0473 23.2964 9.70347C22.9525 9.35966 22.4862 9.1665 22 9.1665C21.5138 9.1665 21.0475 9.35966 20.7036 9.70347C20.3598 10.0473 20.1667 10.5136 20.1667 10.9998C20.1667 11.4861 20.3598 11.9524 20.7036 12.2962C21.0475 12.64 21.5138 12.8332 22 12.8332Z" fill="#2EAE7B"/>
</svg>
